<?xml version="1.0" encoding="UTF-8"?><svg id="Layer_1" xmlns="http://www.w3.org/2000/svg" viewBox="0 0 93.7 249.16"><defs><style>.cls-1{stroke-width:0px;}</style></defs><path class="cls-1" d="m91.92,208.12c-.8-3.75-2.21-6.84-6.35-8.98-5.12-2.65-11.25-2.97-16.89-3.42-7.89-.63-15.82-.67-23.71-.12-7.16.5-14.34.1-21.47.79-6.94.68-14.14,3.8-18.86,9.02-5.54,6.14-5.1,17.22-3.85,24.97.83,5.11,3.02,10.97,7.12,14.38,4.58,3.81,11.83,3.79,17.55,4.08,10.64.54,21.32.37,31.94-.47,8.53-.68,19.19-.49,26.92-4.5,11.11-5.77,9.94-20.7,8.36-31.14-.25-1.63-.46-3.17-.77-4.61Z"/></svg>