<?xml version="1.0" encoding="UTF-8"?><svg id="Layer_1" xmlns="http://www.w3.org/2000/svg" viewBox="0 0 93.7 249.16"><defs><style>.cls-1{stroke-width:0px;}</style></defs><path class="cls-1" d="m32.65,35.8c6.5-.37,12.99-.74,19.49-1.12,6.19-.36,15.59.63,14.83-8.39-.5-6-3.14-12.35-6.12-17.38C56.04.77,48.42-.15,40.33.02c-8.2.17-16.9.05-24.67,3.3-6.85,2.87-10.54,9.42-11.25,17.16-.87,9.34.22,16.94,10.13,16.37,6.04-.35,12.08-.7,18.12-1.04Z"/><path class="cls-1" d="m73.87,49.23c-5.37-8.31-16.88-7.23-25.27-6.46-7.99.74-16.02.65-24.03,1.14-5.78.35-15.78-.75-19.72,4.65-2.32,3.19-2.79,8.78-3.19,12.59-.49,4.69-.44,9.5.42,14.15.68,3.67,2.24,5.46,5.82,6.53,5.6,1.68,11.63.56,17.34.26,9.18-.49,18.35-1.18,27.5-2.05,7.27-.69,14.74-.37,20.67-5.41,5.67-4.82,5.16-18.11.45-25.4Z"/><path class="cls-1" d="m82.46,111.6c-.5-4.1-.78-9.34-2.3-13.79-.92-2.69-2.28-5.09-4.42-6.78-6.74-5.31-17.29-1.95-25-1.57-7.64.37-15.28.74-22.92,1.11-5.4.26-11.14-.94-16.5.61-6.49,1.88-8.3,9.06-8.98,15.08-1.11,9.75-2.57,22.73,8.48,26.78,7.38,2.71,15.47,2.01,23.17,2.38,7.68.37,15.38.23,23.04-.44,5.69-.5,15.82-.13,20.39-3.85,5.72-4.65,5.86-12.75,5.04-19.53Z"/><path class="cls-1" d="m88.16,170.93c-.06-2.13-.23-4.24-.3-6.15-.27-7.69-1.4-15.71-7.59-20.93-4.59-3.88-11.58-2.59-17.26-2.7-13.77-.27-27.44-.22-41.17.88-4.61.37-9.79-1.1-13.48,2.56-4.39,4.36-5.54,10.66-5.55,16.62-.02,7.14-.4,14.53,1.45,21.5,1.5,5.69,8.72,7.22,13.86,7.45,16.36.72,33.16-1.13,49.47-1.94,5.24-.26,11.54-.47,15.96-3.73,4.23-3.12,4.75-8.42,4.61-13.56Z"/><path class="cls-1" d="m91.92,208.12c-.8-3.75-2.21-6.84-6.35-8.98-5.12-2.65-11.25-2.97-16.89-3.42-7.89-.63-15.82-.67-23.71-.12-7.16.5-14.34.1-21.47.79-6.94.68-14.14,3.8-18.86,9.02-5.54,6.14-5.1,17.22-3.85,24.97.83,5.11,3.02,10.97,7.12,14.38,4.58,3.81,11.83,3.79,17.55,4.08,10.64.54,21.32.37,31.94-.47,8.53-.68,19.19-.49,26.92-4.5,11.11-5.77,9.94-20.7,8.36-31.14-.25-1.63-.46-3.17-.77-4.61Z"/></svg>