<?xml version="1.0" encoding="UTF-8"?><svg id="Layer_1" xmlns="http://www.w3.org/2000/svg" viewBox="0 0 284 284"><defs><style>.cls-1,.cls-2{stroke-width:0px;}.cls-2{fill:#fff;}</style></defs><path class="cls-2" d="m268.19,151.3c-1.91-17.72-5.52-35.15-8.48-52.71-2.44-14.49-3.99-30-12.64-42.45-21.81-31.39-62.4-26.89-96.03-27.07-17.21-.09-34.43-.19-51.64-.28-5.58-.03-11.84-.64-17.77-.22-.8-.16-1.6-.3-2.43-.4-9.21-1.07-18.39,2.75-26.13,7.41-7.55,4.55-14.98,10.02-19.43,17.81-3.46,6.06-5.16,13-6.34,19.87-1.59,3.98-2.7,8.18-3.39,12.76-2.66,17.52-4.19,35.16-3.96,52.89.43,33.14,5.05,67.09,22.96,95.67,4.51,7.2,9.52,14.84,16.28,20.07,8.79,6.79,19.22,6.66,29.83,6.91,16.85.41,33.7.48,50.56.22,16.8-.26,33.65-.64,50.41-1.79,17.54-1.2,34.49-4.87,47.58-17.47,5.94-5.72,10.68-12.83,15.44-19.53,4.92-6.93,8.98-14.1,11.95-22.11,5.72-15.41,4.98-33.49,3.25-49.58Z"/><path class="cls-1" d="m193.08,52.68c-7.24-4.63-12.71,4.01-15.24,9.5-8.85,19.3-22.67,36.2-35.37,53.06-6.72,8.92-13.53,17.77-20.44,26.55-7.1-2.22-14.5-3.11-21.55-2.08-9.58,1.4-17.55,9.06-24.2,15.6-4.21,4.14-8.07,8.62-11.63,13.34-3.12,4.14-7.02,8.81-8.29,13.93-.98,3.94-1.13,9.63,2.25,12.53,14.21,12.19,29.84,22.65,46.77,30.67,6.04,2.87,12.39,7,19.32,6.87,7.51-.13,10.21-5.22,12.75-11.66,3.34-8.49,6.49-17.05,9.66-25.61,1.99-5.39,3.99-10.81,4.98-16.46.99-5.66.93-11.62-1.14-16.98-2.22-5.78-6.24-8.93-11.47-11.74.91-2.99,3.63-6.1,5.38-8.73,1.88-2.83,3.8-5.64,5.74-8.43,3.89-5.57,7.9-11.06,11.92-16.54,7.94-10.83,15.93-21.64,23.18-32.96,4.63-7.23,18.81-23.54,7.38-30.85Zm-54.12,125.97c-.15,1.37-.42,2.74-.78,4.06-.76,2.79-1.94,5.45-3.1,8.1-3.57,8.1-7.14,16.21-10.72,24.31-.4.91-.83,1.86-1.61,2.47-1.61,1.27-2.77-.22-4.19-.87-1.13-.52-2.92-.99-3.66-2.05-1.33-1.91.36-5.69.81-7.75.55-2.53,1.14-9.44-2.07-10.54-7.71-2.66-8.52,13.8-15.98,9.62-2.25-1.26-4.37-2.7-6.57-4.03-1.54-.94-3.45-2.09-2.13-4.1,1.35-2.06,2.93-3.97,4.24-6.05,1.53-2.41,3.04-4.87,4.11-7.53.6-1.48,1.3-4.07.42-5.57-1.19-2.02-3.44-1.99-5.3-.94-1.07.6-2.01,1.46-2.99,2.19-1.89,1.39-3.81,2.89-5.69,4.36s-3.57,3.01-5.63,4.14c-.97.53-2.02,1.01-3.12,1.17-1.36.2-2.63-.78-3.56-1.65-3.13-2.89-2.96-2.71-.97-5.91,4.16-6.66,14.73-19.73,20.67-24.87,11.64-10.06,25.25-4.6,32.53-1.21,5.03,2.34,12.41,8.17,14.37,13.68,1.01,2.85,1.25,5.93.92,8.95Z"/><path class="cls-1" d="m228.09,214.33c-.53-3.61-2.46-7.05-5.37-9.26-1.1-.84-2.27-1.67-3-2.85-1.27-2.05-.07-5.12-.43-7.47-.45-2.87-1.28-5.8-2.88-8.25s-3.74-4.16-6.51-4.88c-2.96-.77-6.05.75-8.59-1.19-6.91-5.28-15.92-4.8-20.58,3.55-1.57,2.82-1.36,5.47-1.93,8.48-.72,3.84-6.37,6.95-9.19,9.21-4.8,3.84-9.6,7.68-14.4,11.52-6.77,2-6.06,13.64,2.17,13.71,18.34.15,36.98,4.1,55.23,1.83,5.18-.65,11.45-1.47,14.21-6.6,1.3-2.41,1.66-5.14,1.27-7.78Zm-35.34,1.65c-2.5-.24-4.99-.6-7.49-.89-1.55-.18-7.51-1.68-8.58-.87,4.33-3.3,9.49-6.68,12.91-10.94,2.53-3.16,2.46-6.09,3.23-9.77,1.36,1.9,2.28,4.06,4.76,4.69.79.2,7.86-.61,7.71-.94,1.57,3.38-.67,7.25-.53,10.76.09,2.3,2.93,8,6.12,7.05-5.47,1.62-11.28,1.47-16.91,1.02-.4-.03-.81-.07-1.21-.11Z"/><path class="cls-1" d="m266.59,64.07c-3.45-11.82-7.79-24.85-18.86-31.53-10.21-6.15-69.45-14.24-83.35-14.53-25.36-.52-51.33-2.02-76.86-.07-24.8,1.89-56.56,7.28-67.62,33.9-5.61,13.5-5.89,30.77-7.27,45.22-2.58,26.97-2.88,54.23.39,81.16,1.65,13.56,4.19,27.02,7.73,40.22,2.64,9.84,6.09,19.7,12.33,27.88,6.76,8.85,14.58,14.21,25.31,16.53,13.15,2.84,26.98,4.08,40.41,3.78,13.74-.3,27.61.63,41.41.32,16.23-.36,32.45-1.42,48.59-3.17,13.67-1.49,28.4-1.96,41.49-6.44,11.51-3.94,21.1-6.89,28.43-17.59,9.87-14.43,12.03-34.58,13.83-51.64,2.85-27.05-2.29-111.45-5.96-124.04Zm-15.48,155.82c-7.66,18.53-20.43,23.42-39.47,26.99-31.31,5.87-69.88,6.24-108.45,6.24-25.73,0-44.91,1.06-58.06-22.8-11.32-20.53-17.46-57.64-17.46-80.91,0-28.31-1.06-62.75,9.08-88.95,5.31-13.72,18.06-19.78,31.79-22.13,23.08-3.94,47.52-5.5,70.92-6.04,16.53-.38,33.08.49,49.48,2.6,12.71,1.64,25.71,2.83,37.79,7.4,18.94,7.18,26.25,26.34,29.12,44.91,3.56,23.03,4.06,47.08,3.84,70.32-.17,18.45-1.33,44.84-8.57,62.36Z"/></svg>