<?xml version="1.0" encoding="UTF-8"?><svg id="Layer_1" xmlns="http://www.w3.org/2000/svg" viewBox="0 0 284 284"><defs><style>.cls-1,.cls-2{stroke-width:0px;}.cls-2{fill:#fff;}</style></defs><path class="cls-2" d="m269.31,149.94c-1.91-17.72-5.52-35.15-8.48-52.71-2.44-14.49-3.99-30-12.64-42.45-21.81-31.39-62.4-26.89-96.03-27.07-17.21-.09-34.43-.19-51.64-.28-5.58-.03-11.84-.64-17.77-.22-.8-.16-1.6-.3-2.43-.4-9.21-1.07-18.39,2.75-26.13,7.41-7.55,4.55-14.98,10.02-19.43,17.81-3.46,6.06-5.16,13-6.34,19.87-1.59,3.98-2.7,8.18-3.39,12.76-2.66,17.52-4.19,35.16-3.96,52.89.43,33.14,5.05,67.09,22.96,95.67,4.51,7.2,9.52,14.84,16.28,20.07,8.79,6.79,19.22,6.66,29.83,6.91,16.85.41,33.7.48,50.56.22,16.8-.26,33.65-.64,50.41-1.79,17.54-1.2,34.49-4.87,47.58-17.47,5.94-5.72,10.68-12.83,15.44-19.53,4.92-6.93,8.98-14.1,11.95-22.11,5.72-15.41,4.98-33.49,3.25-49.58Z"/><path class="cls-1" d="m227.78,168.63c5.12-13.93,6.16-29.49,2.99-43.78-7.05-31.73-38.19-49.88-68.49-53.56-20.98-2.55-45.48-1.11-65.38,7.11-14.15,5.84-26.13,14.07-34.12,27.1-8.34,13.61-10.92,28.25-11.34,43.95-.41,15.78,5.23,34.22,17.42,44.87,13.01,11.35,28.38,15.63,45.2,17.16,33.63,3.06,73.59,7.66,99.23-19.26,6.42-6.73,11.25-14.84,14.47-23.59Zm-153.45-51.73c5.2-10.03,16.32-16.65,26.21-21.19,17.99-8.26,38.83-8.29,58.2-6.67,9.26.77,18.39,1.95,26.96,5.76,28.61,12.7,40.41,55.33,21.87,80.6-8.29,11.31-21.43,16.86-34.66,20.14-17.93,4.44-36.92,4.33-55.06,1.26-4.92-.83-9.8-1.9-14.62-3.2-8.39-2.27-16.17-4.4-21.99-11.12-9.35-10.82-13.15-25.84-12.87-39.91.17-8.59,1.87-17.31,5.65-25.06.1-.2.2-.4.3-.6Z"/><path class="cls-1" d="m135.06,149.35c-2.8-4.78-5.74-9.47-8.87-14.04-2.82-4.11-5.65-9.38-11.28-9.5-5.4-.11-7.82,4.61-10.46,8.53-3.18,4.74-6.55,9.35-10.1,13.82-2.37,2.98-2.86,6.98,0,9.9,2.41,2.47,7.55,2.95,9.9,0,2.43-3.05,4.82-6.13,7.12-9.28.98-1.34,2.43-2.99,3.76-4.71.39.48.76.94,1.04,1.36,2.38,3.59,4.63,7.26,6.81,10.98,4.55,7.77,16.66.73,12.09-7.07Z"/><path class="cls-1" d="m193.29,148.83c-3.25-5.31-6.63-10.52-10.2-15.62-2.95-4.22-5.97-9.76-11.99-8.95-5.37.73-8.27,7.59-11.24,11.44-3.64,4.72-7.62,9.16-11.77,13.43-6.28,6.47,3.61,16.38,9.9,9.9,3.53-3.64,6.92-7.39,10.1-11.34,1.41-1.74,2.72-3.74,4.07-5.71.84,1.22,1.69,2.44,2.51,3.68,2.24,3.36,4.4,6.78,6.51,10.23,4.7,7.67,16.81.65,12.09-7.07Z"/><path class="cls-1" d="m266.59,64.07c-3.45-11.82-7.79-24.85-18.86-31.53-10.21-6.15-69.45-14.24-83.35-14.53-25.36-.52-51.33-2.02-76.86-.07-24.8,1.89-56.56,7.28-67.62,33.9-5.61,13.5-5.89,30.77-7.27,45.22-2.58,26.97-2.88,54.23.39,81.16,1.65,13.56,4.19,27.02,7.73,40.22,2.64,9.84,6.09,19.7,12.33,27.88,6.76,8.85,14.58,14.21,25.31,16.53,13.15,2.84,26.98,4.08,40.41,3.78,13.74-.3,27.61.63,41.41.32,16.23-.36,32.45-1.42,48.59-3.17,13.67-1.49,28.4-1.96,41.49-6.44,11.51-3.94,21.1-6.89,28.43-17.59,9.87-14.43,12.03-34.58,13.83-51.64,2.85-27.05-2.29-111.45-5.96-124.04Zm-15.48,155.82c-7.66,18.53-20.43,23.42-39.47,26.99-31.31,5.87-69.88,6.24-108.45,6.24-25.73,0-44.91,1.06-58.06-22.8-11.32-20.53-17.46-57.64-17.46-80.91,0-28.31-1.06-62.75,9.08-88.95,5.31-13.72,18.06-19.78,31.79-22.13,23.08-3.94,47.52-5.5,70.92-6.04,16.53-.38,33.08.49,49.48,2.6,12.71,1.64,25.71,2.83,37.79,7.4,18.94,7.18,26.25,26.34,29.12,44.91,3.56,23.03,4.06,47.08,3.84,70.32-.17,18.45-1.33,44.84-8.57,62.36Z"/></svg>