<?xml version="1.0" encoding="UTF-8"?><svg id="Layer_1" xmlns="http://www.w3.org/2000/svg" viewBox="0 0 283.65 283.65"><defs><style>.cls-1,.cls-2{stroke-width:0px;}.cls-2{fill:#fff;}</style></defs><path class="cls-2" d="m270.35,149.01c-1.91-17.72-5.52-35.15-8.48-52.71-2.44-14.49-3.99-30-12.64-42.45-21.81-31.39-62.4-26.89-96.03-27.07-17.21-.09-34.43-.19-51.64-.28-5.58-.03-11.84-.64-17.77-.22-.8-.16-1.6-.3-2.43-.4-9.21-1.07-18.39,2.75-26.13,7.41-7.55,4.55-14.98,10.02-19.43,17.81-3.46,6.06-5.16,13-6.34,19.87-1.59,3.98-2.7,8.18-3.39,12.76-2.66,17.52-4.19,35.16-3.96,52.89.43,33.14,5.05,67.09,22.96,95.67,4.51,7.2,9.52,14.84,16.28,20.07,8.79,6.79,19.22,6.66,29.83,6.91,16.85.41,33.7.48,50.56.22,16.8-.26,33.65-.64,50.41-1.79,17.54-1.2,34.49-4.87,47.58-17.47,5.94-5.72,10.68-12.83,15.44-19.53,4.92-6.93,8.98-14.1,11.95-22.11,5.72-15.41,4.98-33.49,3.25-49.58Z"/><path class="cls-1" d="m224.93,96.43c-3.42-11.86-11.2-21.2-23.13-24.83-8.86-2.69-18.34-3.28-27.47-1.72-9.58,1.64-17.27,6.8-26.37,9.62-2.93.91-5.4,0-7.86-1.63-10.66-7.08-22.87-13.72-36.08-13.02-6.84.36-13.36,3.1-19.55,5.83-6.29,2.77-12.42,6.5-16.88,11.82-9.34,11.16-11.6,28.13-11.01,42.24s5.47,28.15,13.9,39.55c5.58,7.55,13.13,13.53,20.22,19.64,7.66,6.61,15.64,12.86,23.89,18.72,4.39,3.11,9.01,5.74,13.15,9.2,4.04,3.37,8.39,7.03,13.96,7.01,11.6-.03,23.95-9.55,32.69-16.32,11.23-8.69,20.9-19.22,29.11-30.78,9.36-11.94,17.39-25,21.23-39.83,2.85-11,3.48-24.09.19-35.5Zm-82.03,7.42c4,0,9.49,9.34,10.74,12.04,2.43,5.22,1.17,15.69-3.26,19.45-6.01,5.1-14.95,2.73-18.75-3.82-3.6-6.2-1.23-13.33,1.84-19.18,1.77-3.36,6.21-8.49,9.43-8.49Zm69.78,16.39c-1.03,4.68-2.68,9.25-4.44,13.36-6.07,14.15-14.54,27.21-24.65,38.8-.43.5-.87.99-1.31,1.49-3.72,4.18-7.64,8.19-11.71,12.04-6.78,6.41-14.97,13.23-23.67,16.86-4.72,1.97-9.72-3.69-13.42-6.15-9-6-18.38-11.36-27.16-17.7-10.24-7.4-19.64-16.2-26.28-27.03-7.52-12.25-9.94-26.68-7.08-40.81,2.22-10.96,6.56-21.35,16.84-26.9,9.62-5.2,22.22-5.71,32.03-.71,1.8.92,8.75,4.63,7.86,7.35-.77,2.37-5.34,4.57-7.07,6.43-13.98,15-11.45,44.25,9.19,52.09,10.13,3.85,23.94,2.31,31.48-6.03,5.72-6.32,9.3-14.93,8.59-23.65-.83-10.21-7.46-17.03-13.45-24.68-3.98-5.08,8.58-7.8,11.54-8.59,12.28-3.28,30.4-2.29,38.83,8.72,5.57,7.28,5.79,16.38,3.87,25.09Z"/><path class="cls-1" d="m266.41,63.89c-3.45-11.82-7.79-24.85-18.86-31.53-10.21-6.15-69.45-14.24-83.35-14.53-25.36-.52-51.33-2.02-76.86-.07-24.8,1.89-56.56,7.28-67.62,33.9-5.61,13.5-5.89,30.77-7.27,45.22-2.58,26.97-2.88,54.23.39,81.16,1.65,13.56,4.19,27.02,7.73,40.22,2.64,9.84,6.09,19.7,12.33,27.88,6.76,8.85,14.58,14.21,25.31,16.53,13.15,2.84,26.98,4.08,40.41,3.78s27.61.63,41.41.32c16.23-.36,32.45-1.42,48.59-3.17,13.67-1.49,28.4-1.96,41.49-6.44,11.51-3.94,21.1-6.89,28.43-17.59,9.87-14.43,12.03-34.58,13.83-51.64,2.85-27.05-2.29-111.45-5.96-124.04Zm-15.48,155.82c-7.66,18.53-20.43,23.42-39.47,26.99-31.31,5.87-69.88,6.24-108.45,6.24-25.73,0-44.91,1.06-58.06-22.8-11.32-20.53-17.46-57.64-17.46-80.91,0-28.31-1.06-62.75,9.08-88.95,5.31-13.72,18.06-19.78,31.79-22.13,23.08-3.94,47.52-5.5,70.92-6.04,16.53-.38,33.08.49,49.48,2.6,12.71,1.64,25.71,2.83,37.79,7.4,18.94,7.18,26.25,26.34,29.12,44.91,3.56,23.03,4.06,47.08,3.84,70.32-.17,18.45-1.33,44.84-8.57,62.36Z"/></svg>