<?xml version="1.0" encoding="UTF-8"?><svg id="Layer_1" xmlns="http://www.w3.org/2000/svg" viewBox="0 0 284 284"><defs><style>.cls-1,.cls-2{stroke-width:0px;}.cls-2{fill:#fff;}</style></defs><path class="cls-2" d="m267.19,148.34c-1.91-17.72-5.52-35.15-8.48-52.71-2.44-14.49-3.99-30-12.64-42.45-21.81-31.39-62.4-26.89-96.03-27.07-17.21-.09-34.43-.19-51.64-.28-5.58-.03-11.84-.64-17.77-.22-.8-.16-1.6-.3-2.43-.4-9.21-1.07-18.39,2.75-26.13,7.41-7.55,4.55-14.98,10.02-19.43,17.81-3.46,6.06-5.16,13-6.34,19.87-1.59,3.98-2.7,8.18-3.39,12.76-2.66,17.52-4.19,35.16-3.96,52.89.43,33.14,5.05,67.09,22.96,95.67,4.51,7.2,9.52,14.84,16.28,20.07,8.79,6.79,19.22,6.66,29.83,6.91,16.85.41,33.7.48,50.56.22,16.8-.26,33.65-.64,50.41-1.79,17.54-1.2,34.49-4.87,47.58-17.47,5.94-5.72,10.68-12.83,15.44-19.53,4.92-6.93,8.98-14.1,11.95-22.11,5.72-15.41,4.98-33.49,3.25-49.58Z"/><path class="cls-1" d="m186.48,53.35c-24.91-10.31-56.55,3.02-64.05,29.55-.03.08-.07.15-.1.22-2.48,6.29-2.61,13.24-5.73,19.32-2.03,3.96-5.11,7.18-8.09,10.43-5.68,6.21-11.08,13.64-13.37,21.83-2.77,9.86-.78,17.16,3.18,26.33.46,1.09-4.96,7.35-5.83,8.28-4.69,5.05-9.79,4.55-15.97,5.58-15.53,2.59-25.58,21.61-14.86,34.56,5.6,6.76,14.06,9.1,22.48,8.94,2.89,5.98,7.33,11.12,13.57,13.87,7.63,3.37,17.09,2.18,23.3-3.57,7.59-7.02,4.89-16.32,4.96-25.29.03-3.07,1.34-5.89,2.87-8.48.43-.73,3.63-6.84,4.39-6.81,6.68.33,13.52-1.81,18.93-5.72,4.82-3.48,8.3-8.46,11.79-13.19s8.15-8.41,13.33-11.55c5.43-3.31,11.72-4.69,17.38-7.54,15.92-8.02,30.8-23.84,32.01-42.4,1.66-25.34-18.36-45.33-40.22-54.37Zm-70.22,135.98c-1.38,2.81-2.72,5.68-2.9,6.28-1.49,4.84-1.15,10.15-.63,15.12.54,5.2-.46,9.95-6.81,9.46-5.54-.43-8.94-6.22-10.43-10.96-.83-2.65-3.68-5.51-6.75-5.14-5.52.67-15.19,1.25-17.56-5.5-2.29-6.52,6.34-10.19,11.19-10.8,3.6-.46,7.25.18,10.72-1.12,3.49-1.3,5.65-4.03,7.95-6.83,1.94-2.36,3.89-4.73,5.83-7.09,3.68,4.12,7.95,7.88,12.6,10.7-.18-.11-1.72,2.85-3.22,5.89Zm60.19-45.15c-2.39,1.43-4.74,2.95-7.02,4.61-7.55,5.51-14.54,11.79-20.82,18.71-4.24,4.68-9.91,6.86-16.15,4.65-9.08-3.22-17.09-10.88-21.21-19.53-2.02-4.24-3.15-9.04-2.36-13.73.93-5.54,4.48-10.07,8.09-14.17,5.79-6.58,11.12-13.28,14.61-21.37,2.89-6.69,5.02-13.68,7.7-20.46,3.48-8.79,8.58-13.44,17.28-17,14.16-5.8,29.48,2.2,40.03,11.48,9.79,8.61,17.54,21.66,14.53,35.15-1.45,6.51-5.44,11.94-10.32,16.34-2.27,2.05-4.77,4.35-7.39,5.87-5.66,3.27-11.43,6.14-16.98,9.46Z"/><path class="cls-1" d="m266.59,64.07c-3.45-11.82-7.79-24.85-18.86-31.53-10.21-6.15-69.45-14.24-83.35-14.53-25.36-.52-51.33-2.02-76.86-.07-24.8,1.89-56.56,7.28-67.62,33.9-5.61,13.5-5.89,30.77-7.27,45.22-2.58,26.97-2.88,54.23.39,81.16,1.65,13.56,4.19,27.02,7.73,40.22,2.64,9.84,6.09,19.7,12.33,27.88,6.76,8.85,14.58,14.21,25.31,16.53,13.15,2.84,26.98,4.08,40.41,3.78,13.74-.3,27.61.63,41.41.32,16.23-.36,32.45-1.42,48.59-3.17,13.67-1.49,28.4-1.96,41.49-6.44,11.51-3.94,21.1-6.89,28.43-17.59,9.87-14.43,12.03-34.58,13.83-51.64,2.85-27.05-2.29-111.45-5.96-124.04Zm-15.48,155.82c-7.66,18.53-20.43,23.42-39.47,26.99-31.31,5.87-69.88,6.24-108.45,6.24-25.73,0-44.91,1.06-58.06-22.8-11.32-20.53-17.46-57.64-17.46-80.91,0-28.31-1.06-62.75,9.08-88.95,5.31-13.72,18.06-19.78,31.79-22.13,23.08-3.94,47.52-5.5,70.92-6.04,16.53-.38,33.08.49,49.48,2.6,12.71,1.64,25.71,2.83,37.79,7.4,18.94,7.18,26.25,26.34,29.12,44.91,3.56,23.03,4.06,47.08,3.84,70.32-.17,18.45-1.33,44.84-8.57,62.36Z"/></svg>