<?xml version="1.0" encoding="UTF-8"?><svg id="Layer_1" xmlns="http://www.w3.org/2000/svg" viewBox="0 0 1200 1200"><defs><style>.cls-1,.cls-2{stroke-width:0px;}.cls-2{fill:#fff;}</style></defs><path class="cls-2" d="m809.84,711.83c-.03-15.38-.14-30.75-.32-46.13-.19-16.57-1.72-32.24-9.25-47.24-3.09-6.16-7.04-11.83-10.66-17.69-3.54-5.73-6.53-11.71-9.55-17.72-7.15-14.21-15.89-26.1-28.74-35.66-11.16-8.31-24.09-14.24-36.73-19.91-13.7-6.16-27.69-11.8-42.19-15.79-8.84-2.43-17.93-4.29-27.13-5.43,9-22.33-14.9-40.36-31.07-52.28-15.53-11.46-33.67-19.53-53.1-20.72-19.81-1.21-39.14,6.94-53.63,20.15-15.16,13.83-23.05,33.4-24.79,53.54-1.46,16.88,3.04,33.44,10.38,48.52-2.42,2.3-4.74,4.7-6.97,7.2-.36-.89-.76-1.77-1.24-2.63-4.14-7.52-11.16-11.15-18.96-13.88-11.67-4.07-23.7-7.14-35.87-9.29-12.3-2.17-25.23-4.29-37.76-3.23-15.12,1.28-28.74,6.1-40.16,16.32-9.49,8.5-16.34,20.81-19.39,33.12-7.01,28.26,4.19,56.3,22.72,77.53,1.61,1.85,3.66,3.22,5.93,4.14,1.53,3.07,3.37,5.93,5.64,8.43,8.65,9.57,23.21,12.52,35.16,15.92,6.44,1.83,13.54,4.31,20.3,3.82,7.78-.57,14.33-4.16,18.69-9.93.06.7.13,1.4.18,2.11.47,6.57,1.02,13.07,1.92,19.6,1.6,11.59,4.63,22.8,9.03,33.64,9.74,24,24.42,45.58,43.34,63.33,4.74,4.45,9.67,8.6,14.74,12.52-.08.27-.15.53-.21.8-2.43,10.69,3.24,19.76,13.27,23.37,2.81,1.01,5.64,1.93,8.5,2.77,27.15,8.77,54.84,16.64,83.53,17.55,16.16.51,32.33-1.82,47.93-5.99,14.45-3.87,28.57-8.74,43.16-12.07,13.97-3.19,28.08-6.56,40.48-14.06,12.58-7.61,22.93-18.2,32.41-29.29,10.25-11.98,20.09-24.09,25.5-39.09,5.3-14.71,4.91-30.96,4.88-46.37Z"/><path class="cls-1" d="m819.4,639.98c-9.46-34.02-25.2-67.11-51.14-90.97-7.55-6.95-15.87-13.02-24.5-18.58-9.67-6.23-19.85-11.71-30.01-17.02-9.5-4.96-21.82-6.85-32.32-9.14-17.51-3.82-35.58-6.59-53.42-8.17-44.34-3.92-91.76,11.24-122.06,44.47-3.8,4.17-7.45,8.67-12.31,11.52-.85.5-1.81.96-2.79.86-1.09-.12-1.98-.9-2.81-1.62-8.75-7.68-18.2-10.87-28.57-15.41-4.65-2.03-8.79-5.57-13.54-7.75-4.77-2.19-9.79-3.84-14.93-4.92-29.44-6.14-62.11,3.16-84.56,23-24.09,21.3-30.94,57.95-24.39,88.35,3.1,14.39,9.83,30.81,21.07,40.7,14.62,12.87,36.77,21.01,55.25,26.08,6.51,1.78,13.44,1.59,20.06,2.83,10.44,1.95,10.61,5.4,12.65,15.41.93,4.54,1.85,9.09,3,13.59,2.79,10.93,10.54,20.36,5.99,32.01-2.17,5.58-5.86,10.45-8.3,15.91-4.45,9.94-4.55,21.21-4.58,32.1-.02,8.47-.05,16.96.7,25.4.51,5.71,1.38,14.39,5.54,18.74,1.9,1.99,4.55,3.07,7.18,3.9,6.4,2.02,13.29.32,17.44-5.16,6.3-8.31-.45-23.29-1.75-32.61-1.53-10.93-1.97-23.06,3.64-32.99.9-1.59,2.47-3.32,4.23-2.8.87.26,1.48,1.02,2.01,1.76,3.76,5.26,6.13,11.38,9.99,16.57,3.06,4.11,7.09,9.89,8.28,14.91,1.3,5.48-1.83,11.15-3.1,16.37-1.42,5.86-2.3,11.85-2.65,17.87-.71,12.28.81,24.7,4.58,36.42,1.31,4.08,3.09,8.35,6.68,10.7,4.15,2.73,10.42,1.44,14.26-1.25,9.65-6.77,5.7-19.23,4.09-28.84-1.51-8.96-2.24-18.76,2.42-26.55.43-.73.93-1.45,1.64-1.91,2.99-1.93,7.94,2.25,10.52,3.74,4.63,2.68,9.05,5.78,13.39,8.9,2.82,2.03,5.93,4.7,6.38,8.41.56,4.68-1.63,10.66-1.85,15.52-.51,11.06.95,22.2,4.36,32.74,1.61,4.97,3.78,10,7.77,13.38,3.8,3.22,9.04,4.59,13.96,3.85,3.07-.46,6.18-1.84,7.89-4.44,3.33-5.03.7-12.08-.51-17.39-1.63-7.17-2.44-14.52-2.4-21.87.03-4.67.48-9.59,3.15-13.42.71-1.02,1.6-1.96,2.75-2.42,1.29-.51,2.73-.37,4.1-.21,11.33,1.28,22.89,3.39,34.28,3.86,11.03.45,22.49-.55,33.45-1.67,23.07-2.35,45.91-6.74,68.38-12.45,7.69-1.95,15.47-5.52,22.95-.8,6.5,4.1,9.4,12.25,9.62,19.94.23,7.68-1.73,15.24-2.72,22.86-.19,1.47-.35,2.95-.17,4.42.43,3.5,2.83,6.61,5.98,8.21s6.92,1.73,10.29.69c1.7-.53,3.33-1.36,4.58-2.62,2.71-2.73,3.18-6.33,3.74-9.96.67-4.31,1.09-8.65,1.2-13.01.23-8.66-.77-17.39-3.44-25.65-1.36-4.2-3.13-8.25-5.03-12.23-1.61-3.39-3.28-6.23-2.88-10.1.63-6.2,8.62-13.61,14.89-13.17,6.19.44,10.61,3.84,12.15,9.95,1.62,6.43,1.19,13.18.72,19.8-.26,3.66-.52,7.43.6,10.93,3.02,9.46,14.47,8.83,19.6,1.54,2.64-3.75,3.6-8.44,3.99-13.01,1.07-12.45-1.63-25.19-7.66-36.13-2.14-3.87-4.68-7.53-6.48-11.57-1.87-4.2-3.14-9.37-1.31-13.78s2.3-5.09,5-8.79c7-9.6,16.95,1.62,16.32,10.2-.17,2.3-.86,4.58-.71,6.88.22,3.51,2.54,6.8,5.76,8.2,3.23,1.4,7.21.83,9.92-1.4,3.6-2.97,4.54-8.03,5.02-12.67.78-7.55.91-15.41-1.83-22.49-3.12-8.08-9.63-14.37-13.57-22.09-3.07-6.03.59-11.3,1.74-17.49,1.54-8.24,2.41-16.59,2.7-24.96.59-16.85-1.16-33.74-4.42-50.27-1.18-5.96-2.55-11.88-4.1-17.76-.35-1.33-.71-2.66-1.08-3.98Zm-380.83,25.15c-4.24,21.26-1.53,25.37-23.43,19-24.95-7.26-51.34-15.54-65.06-39.81-18.54-32.8-6.03-78.66,26.7-97.29,13.83-7.87,30.31-10.38,45.98-7.95,9.83,1.53,18.76,5.94,27.29,10.88,7.46,4.32,17.87,8.2,23.48,14.86,8.73,10.38-.44,18.43-5.09,27.72-3.94,7.85-8.26,15.5-12.11,23.4-7.65,15.69-14.33,32.01-17.76,49.19Zm346.3,107.15c-17.83,28.24-46.55,57.98-79.07,67.24-20.45,5.83-41.65,8.51-62.82,9.93-15.62,1.05-32.45,2.92-47.91.29-2.44-.42-11.65-1.06-12.49-3.93-.13-.46.04-.95.22-1.4,2.17-5.53,4.84-10.96,5.17-16.99.2-3.53-.55-7.46-3.34-9.65-2.2-1.73-5.23-2.01-8.02-1.7-10.07,1.11-18.49,8.89-22.74,18.08-.82,1.76-1.78,3.82-3.68,4.22-.83.17-1.68-.02-2.49-.25-3.43-1-5.99-3.12-9.08-4.69-3.17-1.61-6.22-3.46-9.11-5.53-1.96-1.4-3.89-2.96-5.13-5.03-3.37-5.66,1.7-15.31,2.65-21.26.85-5.28.53-10.98-2.23-15.57s-8.38-7.69-13.56-6.36c-5.17,1.33-8.42,6.35-10.77,11.14-.73,1.49-1.45,3.04-2.68,4.15-5.41,4.89-11.96-8.1-13.69-11.42-3.11-5.96-7-12.64-6.54-19.61.43-6.52,5.97-11.04,7.83-17.12,1.11-3.64.77-7.74-1.16-11.02s-5.47-5.62-9.27-5.84c-2.25-.13-4.54.51-6.4,1.78-1.53,1.03-2.48,3.13-4.18,3.84-2.25.95-2.92.03-4-2.1-2.13-4.24-1.92-9.32-3.06-13.84-1.97-7.79-3.04-15.82-2.74-23.86.63-16.63,4.31-33.06,9.88-48.7.26-.73.52-1.46.79-2.19,9.02-24.42,22.48-46.95,36.51-68.88,6.01-9.39,12.21-18.8,20.31-26.46,10.69-10.11,24.1-16.63,37.58-22.16,13.96-5.72,28.37-10.52,43.42-12.42,42.73-5.42,84.78,3,121.07,26.58,19.86,12.91,42.48,29.8,54.77,50.4,8.28,13.87,12.06,30.49,16.54,45.87,13.63,46.69,16.38,91.75-10.59,134.46Z"/><path class="cls-1" d="m479.81,700.68c1.19,4.29,2.79,8.46,4.91,12.45,5.77,10.86,13.68,18.44,24.42,24.29,10.48,5.7,22.01,9.4,33.75,11.41,7.36,1.26,14.84,1.85,22.3,1.64,6.89-.19,11.94-1.71,18.28-3.76,12.28-3.97,23.37-11.11,31.71-21.01,2.27-2.69,4.32-5.55,6.35-8.42,2.62-3.71,5.19-7.44,7.77-11.17,5.99-8.68,12.11-17.66,15.22-27.86,2.74-8.97,1.96-19.35.35-28.54-3.37-19.22-14.25-36.69-28.46-49.83-2.27-2.1-4.63-4.1-7.09-5.98-10.19-7.82-22.04-13.67-34.49-16.85-10.77-2.75-22.21-3.47-33.09-.91-16.54,3.89-31.97,15.48-42.22,28.78-9.81,12.73-19.96,26.24-22.22,42.16-.51,3.57-.6,7.18-.69,10.78-.36,14.32-.6,29.2,3.19,42.82Zm24.54-71.69c1.14-1.8,2.31-3.58,3.47-5.35,1.78-2.7,3.57-5.42,5.72-7.85,5.6-6.35,13.3-10.4,20.81-14.31,3.14-1.63,6.31-3.28,9.74-4.11,2.63-.64,5.35-.78,8.05-.91,22.72-1.16,43.96,4.15,59.72,21.65,18.92,21.02,17.26,37.26,11.42,63.15-3.8,20.9-17.35,28.35-34.92,39.49-16.19,10.26-35.96,12.48-53.92,5.67-8.68-3.29-16.59-8.45-23.34-14.8-6.81-6.41-10.6-14.61-14.33-22.99-3.84-8.61-2.74-20.74-2.26-30.08.2-3.82.53-7.65,1.43-11.37,1.58-6.53,4.81-12.47,8.41-18.19Z"/><path class="cls-1" d="m495.96,514.71c-.01.4-.02.8-.03,1.21-.19,10.44-4.31,20.35-16.6,13.32-5.11-2.92-8.48-9.64-8.86-15.44-3.34-50.97,39.94-90.8,88.1-97.14,23.38-3.73,49.85,10.93,68.06,24.79,7.75,5.9,35.06,36.45,15.44,44.26-9.45,3.76-15.61-8.73-20.82-14.01-9.5-9.61-20.56-18.06-31.8-25.54-43.31-28.82-92.37,26.8-93.5,68.54Z"/><path class="cls-1" d="m657.07,655.76c-2.34-20.33,3.3-39.16,12.09-57.17,6.23-12.78,16.78-23.55,29.77-29.32,7.7-3.42,16.21-5,24.62-4.56,16.31.86,33.19,7.9,44.4,19.97,7.45,8.02,12.42,18.1,15.71,28.54,7.25,22.98,12.33,50.29,1.91,73.05-3.02,6.59-7.25,12.58-12.43,17.64-30.31,29.65-83.7,19.73-105.18-15.3-6.1-9.94-9.56-21.3-10.89-32.84Zm59.67-73.21c-10.6.84-19.29,5.88-25.88,15.6-11.34,16.73-16.76,41.51-13.51,61.5,3.95,24.3,28.22,39.07,51.7,38.38,16.2-.48,30.87-8.72,38.28-23.15,7.28-14.18,9.1-31.21,4.44-46.51-1.3-4.27-3.05-8.38-4.91-12.43-2.09-4.56-4.34-9.08-7.24-13.18-7.93-11.18-20.86-18.57-34.46-20.05-2.93-.32-5.73-.38-8.42-.16Z"/><path class="cls-1" d="m593.04,659.17c4.17,22.77-28.09,47.86-48.25,33.47-18.3-13.06-9.74-48.33,7.77-58.24,18.59-10.52,37.1,6.34,40.48,24.77Z"/><path class="cls-1" d="m716.06,618.16c5.89-1.07,12.51.22,17.76,2.36,10.26,4.17,17.24,14.99,16.34,26.16-.71,8.8-6.4,17.06-14.43,20.75s-18.07,2.6-25.05-2.81c-8.46-6.56-11.63-18.4-9.79-28.95.72-4.12,2.14-8.19,4.72-11.49,2.69-3.44,6.4-5.29,10.45-6.02Z"/></svg>