<?xml version="1.0" encoding="UTF-8"?><svg id="Layer_1" xmlns="http://www.w3.org/2000/svg" viewBox="0 0 1200 1200"><defs><style>.cls-1,.cls-2{stroke-width:0px;}.cls-2{fill:#fff;}</style></defs><path class="cls-2" d="m732.91,753.29c-18.39-52.35-39.28-103.82-62.44-154.24-.68-1.49-1.69-2.82-2.9-4-4.15-14.76-8.01-29.6-11.56-44.52-5.51-23.13-8.98-46.87-15.27-69.79-6.5-23.7-19.24-48.09-43.86-56.72-25.7-9-47.98,9.14-59.24,30.8-11.46,22.06-19.77,46.02-28.8,69.14-8.92,22.84-17.55,45.82-24.66,69.3-7.58,24.98-12.77,50.56-19.06,75.88-3.12,12.57-6.54,25.08-10.74,37.34-.95,2.77-1.94,5.53-2.98,8.27-.52,1.37-1.05,2.73-1.59,4.09-.32.81-.64,1.61-.97,2.41-.05.12-.09.22-.15.35-2.63,5.91-5.44,11.7-8.54,17.38-4.77,8.72-2.43,21.11,6.82,26,6.29,3.32,14.12,3.18,19.98-.48,3.37,1.22,7.16,1.57,11.08.7,8.95-1.98,14.04-2.57,24.91-2.24,1.46.04,2.91.14,4.37.25,0,0,.01.02.02.03,1.69,2.84,4.13,5.46,6.89,7.39.11.68.22,1.35.3,1.72.02,1.06.07,2.57.07,2.87-.01,1.02-.09,2.01-.07,2.15-.59,2.9-1.59,5.69-2.59,8.47-2.58,7.12-4.77,14.5-4.04,22.15-4.33,4.21-6.61,9.8-5.75,16.24.92,6.84,6.29,14.53,13.61,15.8,7.54,1.31,15.04,1.59,22.31-1.18,9.64-3.67,15.16-12.83,13.55-21.82,1.78-2.02,3.11-4.45,3.71-7.23,1.94-8.96,2.85-18.07,1.91-27.2l-.14.02c-.02-.24-.04-.47-.06-.71.37-4.96.82-9.92,1.38-14.87.18-1.61.38-3.21.57-4.81,0-.06.02-.14.03-.23,0,.05-.01.09-.02.15,0-.06.02-.11.03-.17.1-.76.34-2.24.26-1.72.14-.94.29-1.88.44-2.81.2-.28.4-.56.59-.85,1.04-1.5,2.09-3,3.1-4.51.13-.18.25-.33.35-.48.51-.62,1.03-1.24,1.56-1.84,1.05-1.17,2.16-2.25,3.3-3.32-.78.8,1.57-1.14,2.23-1.65.41-.21.7-.36.92-.48.41-.12.82-.23,1.24-.33.21-.01.45-.02.72-.04.86,0,1.72.03,2.58.08-.76.04,4,.9,4.68,1.09,1.41.39,2.81.83,4.19,1.31.68.24,1.36.5,2.03.75.07.03.12.06.2.09,1.74.9,3.49,1.73,5.19,2.7,1.27.73,2.52,1.5,3.74,2.3.67.44,4.1,3.15,3.29,2.4,2.55,2.2,5.01,4.49,7.26,7.01.02.03.04.05.07.08.49,2.37.95,4.75,1.36,7.13.22,1.24.42,2.48.62,3.73-.04-.23.27,1.87.45,3.02.13,1.12.42,3.4.39,3.16.14,1.25.27,2.5.39,3.76.33,3.45.59,6.9.77,10.36.73,13.5-1.52,28.27,7.29,39.68,5.27,6.82,13.58,11.2,22.33,11,11.35-.27,20.01-7.94,23.7-18.3,5.36-15.03,2.6-31.04-3.42-45.3-1.06-2.5-2.89-4.52-5.14-6.03.27-.25.54-.5.81-.75,1.68-1.5,3.41-2.94,5.15-4.38.21-.17.38-.31.54-.44,1-.74,2-1.49,3.02-2.21,7.01-4.97,14.46-9.25,22.23-12.92,4.1,6.41,8.61,12.6,13.68,18.49,12.24,14.19,37.95-.85,31.76-18.49Z"/><path class="cls-1" d="m488.7,827.19c-1.52-10.77.08-21.48,1.77-32.12.8-5.05,1.62-10.1,2.48-15.14.18-1.03-.76-1.94-1.77-1.66-1.86.52-4.29.39-5.57.82-3.98,1.35-7.87,2.91-11.91,4.1-7.73,2.28-15.78,3.78-23.86,4-13.92.38-29.74-4.14-31.42-20.21-.04-.4-.07-.8-.1-1.2-2.05-33.27,15.34-68.03,26.57-98.82,16.84-46.18,32.94-92.63,50.67-138.48,9.11-23.57,18.65-46.99,28.92-70.08,7.49-16.83,15.41-39.52,33.69-47.48,36.74-15.98,66.04,19.65,81.59,47.49,15.4,27.59,27.12,57.23,34.71,87.9,7.82,31.58,19.16,62.12,31.26,92.46,4.5,11.28,8.99,22.56,13.38,33.88,12.16,31.31,24.77,61.37,29.32,95,.52,3.81.95,7.71.2,11.48-1.91,9.68-14.23,16.75-23.7,15.76-6.55-.69-12.56-3.91-18.1-7.47-4.21-2.72-8.05-5.97-12.47-8.24-4.78-2.46-9.85-4.36-14.66-6.77-.52-.24-1.08-.49-1.65-.43-2.96.31-.89,9.73-.71,11.68,1.19,12.94,4.05,26.64,2.9,39.78-.9,10.31-4.59,20.3-14.2,25.43-15.15,8.09-53.42,10.82-59.5-11.03-2.33-8.36-3.56-17.02-3.68-25.7s.5-23.89-1.91-31.53c-2.1-6.69-20.23-20.47-25.23-19.56-4.17.76-5.56,36.23-5.63,39.18-.29,13.35,1.56,46.53-13.34,52.42-19.77,7.82-64.69-1.5-68.08-25.48Zm237.02-66.21c.15-7.55-3.57-16.14-5.68-22.5-11.28-33.82-24.66-66.44-38.26-99.29-14.54-35.05-24.16-71.81-35.76-107.87-10.11-31.42-21.94-80-49.56-100.8-37.48-28.21-57.14,48.41-65.48,70.46-14.43,38.13-28.51,76.21-41.75,114.67-15.26,44.31-37.22,84.87-43.07,131.76-1.87,14.97,9.59,18.15,21.45,12.61,6.03-2.82,11.89-5.99,17.55-9.51,6.78-4.21,14.75-9.1,22.16-6.14,5.67,2.26,8.67,8.35,10.99,14,1.63,3.96,3.47,10.32,7.46,12.61,4.85,2.78,9.56-3.39,13.04-6.26,10.21-8.44,17.49-20.77,29.98-26.25,1.1-.48,2.25-.91,3.45-.99,3.83-.26,8.13,2.96,11.49,4.47,3.86,1.73,7.09,4.45,10.68,6.89,9.78,6.65,19.69,13.15,29.37,19.94,4.27,2.99,13.64,12.96,19.4,7.93,3.1-2.71,4.46-11.08,6.14-14.91,2.43-5.5,5.16-10.87,8.18-16.08,2.96-5.1,7.29-10.65,13.18-10.37,2.71.13,5.17,1.52,7.48,2.94,13.57,8.35,24.45,19.86,37.5,28.8,3.65,2.5,6.93,4.64,8.88,0,.79-1.9,1.15-3.96,1.19-6.1Zm-173.63,27.54c-.08-2.28-.32-4.52-.9-6.53-.3-1.07-1.63-1.41-2.43-.64-3.3,3.19-5.49,7.51-9.5,9.99-4.7,2.91-10.34,2.1-15.43.77-1.99-.52-6.57-3.07-8.47-1.61-1.53,1.17-1.95,5.72-2.52,7.4-3.36,9.89-7.02,21.24,2,28.44,10.99,8.78,32.12,9.23,34.77-6.85,1.11-6.75,1.9-13.55,2.16-20.39.12-3.11.44-6.91.31-10.59Zm111.43,21.49c.08-5.38-.36-11.83-4.37-14.22-1.92-1.15-4.53,2.63-5.71,3.62-3.76,3.14-9.24,2.87-13.73,1.73-3.74-.96-13.08-9.14-16.21-6.25-2.54,2.35.5,14.55.78,17.2,2.21,20.14,1.42,23.3,22.56,21.69,3.21-.24,6.68-.35,9.62-1.79,6-2.94,6.8-11.09,6.9-16.96.03-1.4.12-3.15.15-5.02Z"/><path class="cls-1" d="m636.92,624.2c1.26,10.72,1.77,22.41-2.02,32.84-4.93,13.58-20.24,15.13-31.8,4.51-10.67-9.79-12.5-23.87-10.96-36.33.94-7.63,2.63-15.42,6.97-22.32,3.46-5.5,10.01-13.22,18.77-12.81,15.94.76,18,25.16,19.05,34.11Z"/><path class="cls-1" d="m564.53,612.67c1.24,8.11.46,16.9-.78,24-1.49,8.5-3.89,18.38-8.37,25.84-2.51,4.18-6.2,7.61-11.2,8.29-7.64,1.05-13.9-4.83-17.84-10.71-5.8-8.64-7.31-19.53-6.32-29.72.9-9.17,3.08-19.53,7.68-27.6,4.08-7.15,13.08-15.5,21.98-11.82,9.27,3.84,13.41,12.3,14.85,21.69Z"/></svg>