<?xml version="1.0" encoding="UTF-8"?><svg id="Layer_1" xmlns="http://www.w3.org/2000/svg" viewBox="0 0 1200 1200"><defs><style>.cls-1,.cls-2{stroke-width:0px;}.cls-2{fill:#fff;}</style></defs><path class="cls-2" d="m781.3,570.45c-7.34-13.46-16.98-26.06-28.1-36.62-4.92-4.67-10.3-8.82-15.35-13.35-2.37-2.12-4.67-4.32-6.78-6.69-.06-.07-.3-.31-.57-.59,0,0,0,0,0,0-.83-1.39-1.67-2.79-2.49-4.19-.16-.53-.36-1.16-.38-1.24-.07-.25-.15-.85-.22-1.34,0-.38,0-.73,0-.81.06-.92.57-4.74.19-2.91.44-2.3.91-4.59,1.37-6.88,1.82-9.22,3.07-18.63,3.59-28.02,1.03-18.43-1.69-36.71-15.53-50.12-24.97-24.2-70.59-30.75-96.72-5.06-6.23,6.12-10.63,13.75-13.12,22.09-3.76,12.58,6.4,23.17,18.32,24.05,4.77.35,9.54.71,14.3,1.06.1.69.23,1.37.41,2.07l7.22,27.46c-.12.1-.24.2-.36.3-.35.27-1.26.99-1.72,1.31-1.84,1.28-3.74,2.48-5.68,3.59-1.74,1-3.51,1.93-5.31,2.81-.36.17-.72.34-1.08.5-.31.16-.87.43-1.24.58-.14.07-.28.13-.41.19.12-.06.21-.1.31-.16-4.29,1.6-8.62,3.03-13.07,4.16-3.98,1.01-8.01,1.76-12.05,2.45-.58.1-.96.17-1.21.22-.47.03-.95.05-1.34.09-2.67.28-5.35.48-8.03.63-11.1.62-22.22.32-33.32-.07-22.45-.79-45.69-2.25-67.75,3.07-21.94,5.29-38.1,19.82-50.42,38.12-.17.25-.33.5-.5.74-13.3,13.72-23.07,30.33-28.5,49.15-2.98,10.32-4.61,21.24-4.73,32.18-2.97,19.73-1.5,40.26,3.94,59.27,8.78,30.68,27.5,55.69,52.98,74.52,12.6,9.31,26.57,16.67,40.79,23.17,15.98,7.31,32.51,13.83,49.85,17.06,18.41,3.43,37.1,3.77,55.76,3.62,17.27-.14,34.67-6.75,51.86-8.42,17.68-1.72,33.88-5.4,48.89-15.47,14.09-9.45,27.24-15.76,38.34-28.45,22.18-25.33,39.76-54.02,44.61-87.86,4.77-33.29-.59-66.56-16.76-96.2Z"/><path class="cls-1" d="m796.08,601.34c-5.46-23.74-18.55-49.34-35.58-67.04-4.09-4.25-16.5-12.24-18.68-16.82-3.04-6.4,2.21-21.87,3.01-28.25,3.98-31.58-.39-68.52-29.55-87.44-38-24.96-104.96-19.51-121.19,28.74-3.41,10.71-7.32,30.17,3.27,38.4,8.49,6.6,19.04.13,28.46,1.22,13.05,1.5,15.87,17.45,4.13,23.34-4.85,2.43-10.47,2.73-15.9,2.78-22.97.22-45.86-3.08-68.83-3.31-33.85-.33-65.31,9.63-92.45,30.07-21.49,16.19-38.09,38.45-47.65,63.59-5.04,13.25-8.12,27.22-9.27,41.35-20.32,256.53,480.17,244.54,400.22-26.64Zm-146.05-88.65c-10.7.72-20.2,5.66-26.38,14.78-.89,1.31-1.7,2.69-2.82,3.81-8.05,8.04-24.69,2.52-34.35,1.01-11.5-1.8-24.27-2.82-33.88,5.03-12.99,10.61,1.41,30.04,6.69,40.73.43.87.86,1.75,1.02,2.7.44,2.57-1.21,5.12-3.4,6.54-2.18,1.42-4.81,1.93-7.37,2.41-6.31,1.19-12.56,2.14-18.93,2.95-5.14.65-10.91,1.67-13.8,5.97-2.54,3.78-1.91,8.84-.48,13.16,5.56,16.87,22.37,26.52,33.51,39.45,4.53,5.26-5.02,9.61-8.33,11.94-6.17,4.34-12.22,8.84-18.17,13.49-3.88,3.04-8.1,6.97-7.7,11.89.34,4.23,4.02,7.33,7.53,9.71,12.55,8.5,26.86,14.39,38.55,24.05,1.21,1,2.43,2.1,2.98,3.57,1.27,3.41-1.51,6.87-4.07,9.45-5.46,5.5-13.15,11.1-16.71,18.07-1.43,2.81-2.12,6.14-1.19,9.15,1.05,3.4,3.95,5.88,6.87,7.91,5.03,3.49,10.53,6.24,16.14,8.68,2.89,1.26,5.94,2.26,8.78,3.63.6.29,5.71,1.65,4.37,4.6-3.23,7.14-57.57-7.98-80.22-20.28-45.66-24.8-81.71-71.4-80.48-125.12.5-19.79,5.22-39.51,13.07-57.65,8.54-19.72,21.1-38.15,37.89-51.74,16.81-13.62,39.32-21.61,61.08-21.12,26.95.61,54.06.98,81.08,1.3,8.28.1,16.78.15,24.53-2.76,9.39-3.53,18.76-13.26,18.44-23.93-.32-10.57-1.75-23.24-10.25-30.65-2.6-2.27-5.69-3.91-8.98-4.92-4.65-1.32-20.51,1.34-23.24-1.53-10.03-36.69,40.72-50.77,71.38-41.03,19.92,4.64,33.98,18.13,39.62,36.84,2.46,8.92,3.71,18.37,3.51,27.62-.08,3.55-1.22,6.87-1.36,10.49-.19,4.88-.38,9.76-.57,14.64-.09,2.19-.18,4.41-.83,6.51-.25.79-.63,1.62-1.38,1.97-.56.27-1.22.21-1.84.16-5.1-.4-11.04-.28-15.94,1.32-3.84,1.26-7.04,5.51-9.23,8.79-2.12,3.17-3.06,6.81-6.75,8.64-1.12.56-2.4.9-3.63.65-1.24-.26-2.26-1.09-3.27-1.85-4.62-3.51-9.67-5.79-15.09-7.73-5.42-1.94-10.49-3.71-16.4-3.31Zm105.47,216.7c-17.26,25.62-47.23,43.34-77.25,49.83-16.32,3.53-33.2,4.74-49.82,2.89-3.09-.34-6.16.02-9.19-.35-3.92-.48-8.07-2.3-11.78-3.62-7.38-2.64-14.56-5.85-21.45-9.61-3.12-1.7-6.38-3.74-7.71-7.03-1.56-3.86.05-8.34,2.63-11.61,5.08-6.42,11.58-10.86,18.1-15.79,1.69-1.28,3.45-2.64,4.32-4.57,2.02-4.47-1.51-9.41-5.08-12.76-6.84-6.41-14.76-11.66-23.32-15.45-5.89-2.61-12.13-4.57-17.48-8.15-1.04-.7-2.08-1.49-2.68-2.58-1.75-3.15.73-6.98,3.43-9.35,9.62-8.47,33.69-15.87,22.61-32.82-2.53-3.87-6.11-6.02-9.82-8.56-3.62-2.48-6.96-5.56-10.42-8.34-6.58-5.28-12.84-10.51-17.82-17.39-.27-.37-.55-.79-.51-1.25.03-.35.25-.66.5-.92,1.45-1.49,3.78-1.55,5.86-1.56,7.85-.04,15.58-1.65,23.41-1.92,7.68-.26,14.77.59,22.31-1.81,1.57-.5,3.23-1.19,4.02-2.64.6-1.09.57-2.42.38-3.65-.83-5.43-4.38-9.98-7.64-14.41-3.2-4.33-6.23-8.79-9.09-13.35-2.41-3.84-6.56-8.47-6.86-13.17-.7-10.86,20.02-2.88,25.15-1.19,8.64,2.84,16.89,6.9,25.75,9,3.74.89,7.92,1.35,11.22-.61,3.48-2.07,5.05-6.31,5.52-10.33.47-4.02.11-8.13.92-12.1,4.4-21.36,30.99-1.86,40.26,5.07,3.01,2.25,6.06,4.6,9.64,5.75,3.58,1.15,7.88.85,10.6-1.75,2.6-2.49,3.16-6.38,3.39-9.96.23-3.59.34-7.41,2.36-10.38,8.29-12.21,38.03,18.97,43.42,25.85,11.4,14.57,18.68,32.04,22.63,50.03,7.98,36.42,3.47,77.15-14.24,110.16-1.91,3.57-4,7.05-6.26,10.41Z"/><path class="cls-1" d="m655.93,739.49c-4.61-.5-8.48-3.55-7.45-9.55.76-4.44,5.13-7.57,8.27-10.35,3.66-3.25,6.94-6.71,9.95-10.58,6.42-8.27,11.68-17.54,19.52-24.62,13.77-12.43,23.19-3.14,34.92,8.59,9.91,9.91,23.76,16.09,23.76,23.29,0,5.84-3.37,8.82-10.04,8.82-20.6,0-28.88-26.69-37.43-20.44-5.93,4.33-9.49,11.05-14.16,16.56-5.51,6.51-12.61,13.68-20.51,17.21-2.12.95-4.56,1.32-6.82,1.08Z"/><path class="cls-1" d="m753.4,626.12c.7,8.32.97,18.29-4.61,25.15-9.36,11.51-18.8,2.04-23.9-7.89-4.99-9.72-8.22-20.47-9.24-31.36-.82-8.72-1.9-23.44,6.86-28.52,18.56-10.79,28.97,19.71,30.9,42.62Z"/><path class="cls-1" d="m653.85,641.98c.44,15.36-2.61,30.15-9.12,34.88-2.43,1.76-5.31,2.74-8.28,3.02-16.81,1.59-18.81-20.54-19.4-32.49-.67-13.57-4.64-40.63,11.54-46.49.03-.01.06-.02.1-.03,16.16-5.74,24.52,18.32,25.17,41.12Z"/></svg>