<?xml version="1.0" encoding="UTF-8"?><svg id="Layer_1" xmlns="http://www.w3.org/2000/svg" viewBox="0 0 1200 1200"><defs><style>.cls-1,.cls-2{stroke-width:0px;}.cls-2{fill:#fff;}</style></defs><path class="cls-2" d="m830.67,530.8c-6.62-6.08-15.06-6.74-23.02-2.97-.09.04-.15.07-.23.11-1.06.38-2.13.72-3.22,1.02-1.76.49-3.55.88-5.35,1.2,1.12-.23-3.26.29-3.99.33-2.03.12-4.07.18-6.1.2-8.3.1-16.61-.5-24.9,0-16.67,1-34.58,5.32-46.46,17.76-2.73.63-5.43,1.38-8.09,2.31-3.5,1.22-7.01,2.36-10.51,3.56-.32.11-.57.2-.75.28-.21,0-.47-.01-.8-.01-1.66.01-3.32.11-4.99.13-12.49.1-24.99-.51-37.42-1.72-6.22-4.84-13.34-8.46-21.07-10.74-23.23-6.83-49.58-3.71-73.29-1.57-14.74,1.33-30.2,2.95-44.15,7.99-3.09-5.91-6.29-11.73-11.13-16.62-.59-.59-1.23-1.12-1.89-1.62-.53-2.49-1.49-4.95-2.96-7.28-3.74-5.95-9.57-10.38-14.77-14.98-4.99-4.42-10.03-8.78-15.11-13.1-10.17-8.63-20.52-17.03-31.03-25.23-4.72-3.68-9.74-5.91-15.27-5.36-4.66-5.77-12.56-9.02-19.89-6.64-9.73,3.15-16.18,13.13-13.27,23.37l27.29,96c2.61,9.17,12.89,15.73,22.2,13.78-3.44,7.12-6.84,14.25-10.1,21.46-12.69,28.04-23,56.43-26.54,87.15-1.78,15.44-1.28,31.56,2.95,46.59,4.25,15.11,12.37,28.36,22.14,40.49,16.86,20.96,39.58,37.73,64.23,48.37,13.28,5.73,26.86,10.14,41.17,12.42,16.43,2.61,32.93,3.41,49.54,3.77,29.63.64,60.43.98,88.68-9.27,26.22-9.51,49.27-25.64,65.18-48.77,19.03-27.66,24.62-65.57,23.17-98.45-.4-9.14-1.5-18.25-2.99-27.27-.71-4.29-1.62-8.54-2.57-12.78-.04-.16-.08-.33-.12-.49.23-.35.46-.69.71-1.03.3-.43.6-.86.9-1.29,6.07,1.25,12.77-.22,17.04-5.04,24.59-27.77,44.99-58.99,59.77-93.04,3.29-7.58,3.71-16.89-2.97-23.02Z"/><path class="cls-1" d="m780.92,709.61c8.39,112.45-90.24,168.86-195.69,152.88-62.09-7.22-135-23.34-173.03-78.14-36.14-62.44-24.87-112.22-1.82-175.59,3.9-19.61-51.65-131.16-26.8-153.72,30.7-27.88,105.44,32.91,130.54,59.12,17.21,17.96,45.8,6.64,67.27,6.97,36.14-1.41,67.11,22.26,102.57,22.95,11.89-.97,24.79-11.17,35.19-15.79,32.44-14.42,70.77-19.41,104.22-19.41,76.19,12.61-29.66,133.96-40.78,149.62-3.89,6.13-5.74,13.79-4.66,18.82,2.93,13.69,2.58,19.05,2.99,32.29Zm-24.75,12.9c-.05-75.27-48.88-153.44-126.95-166.41-34.48-8.99-75.32-17.22-108.78-.93-59.25,28.84-116.01,94.62-104.73,164.67,27.28,148.19,339.48,183.5,340.45,2.68Zm74.08-186.33c1.19-16.12-151.97.68-104.31,41.83,16.44,15.37,29.68,34.04,38.64,54.66,1.74,4.01,7.06,4.83,9.95,1.55,23.97-31.25,57.03-66.11,55.72-98.04Zm-334.26-1.46c3.08-16.3-36.49-40.41-46.32-46.58-65.04-45.05-58.62-9.87-36.06,49.24,3.82,10.17,10.5,45.29,24.74,45.34,4.91.02,18.92-11.78,22.26-14.83,8.67-7.92,33.27-22.03,35.37-33.18Z"/><path class="cls-1" d="m606.24,701.13c-1.95-23.64,4.53-50.12,18.67-55.77,37.08-14.82,43.11,85.09,13.98,94.35-20.07,6.37-30.68-14.65-32.66-38.57Z"/><path class="cls-1" d="m489.08,684.11c.57-21.93,9.83-45.31,24.32-47.18,31.96-4.13,28.82,83.94.35,86.04-17.96,1.32-25.21-18.12-24.66-38.86Z"/></svg>