<?xml version="1.0" encoding="UTF-8"?><svg id="Layer_1" xmlns="http://www.w3.org/2000/svg" viewBox="0 0 2325.13 1576.14"><defs><style>.cls-1,.cls-2{stroke-width:0px;}.cls-2{fill:#fff;}</style></defs><path class="cls-1" d="m2225.45,1032.12c-156.86-11.45-315.79-10.05-473.02-12.42-118.49-1.79-236.99-2.68-355.48-2.66-240.34.04-480.68,3.79-720.9,11.25-79.91,2.5-159.78,5.98-239.66,9.27-77.94,3.21-156.27,3.7-234.08,8.98-48.21,3.27-96.25,9.34-143.76,18.19-8.85,1.64-5.1,15.14,3.72,13.5,151.93-28.22,307.39-25.18,461.21-30.71,156.09-5.61,312.63-12.91,468.84-12.91,240.3-4.2,480.67-4.7,720.99-1.48,157.05,2.1,314.58,3.77,471.49,10.61,13.56.59,27.12,1.38,40.66,2.37,8.99.66,8.95-13.35,0-14Z"/><path class="cls-2" d="m1794.55,1390.23c-7.69-19.18-28.53-29.24-42.84-43.23-36.78-32.36-79.83-55.82-119.94-83.53-28.53-45.75-75.69-76.2-117.04-109.6-53.24-44.07-99.12-67.52-169.85-56.04-19.52-6.66-41.97-5.54-62.64-5.72-1.7.06-3.08.62-4.14,1.47-120.98,3.37-258.87,2.48-377.5,23.34-34.37,8.86-61.35,31.66-86.48,55.62-15.41,9.22-29.69,20.38-43.37,32.07-18.67,5.48-33.06,20.46-45.1,35.12-36.32,34.68-77.4,64.52-112.73,100.47-22.15,16.95-44.94,33.06-68.42,48.11-5.26,3.37-8.87,9.29-9.39,15.42-16.24,12.65-2.98,38.47,16.7,33.38,46.17-10.56,92.79-19.09,139.72-25.47,35.49-4.82,87.26-9.85,128.62-11.76,83.55-4.15,166.5,14.71,250.38,11.41,48.05-.15,95.74-3.92,143.3-9.24,43.76,9.19,89.85,7.44,132.85-5.16,119.17-1.68,238.75.03,356.87,14.96,7.25,5.49,17.56,7.19,25.25,1.54,15.79.73,31.61,1.03,47.42.89,11.98-.11,22.04-12.1,18.32-24.05Z"/><path class="cls-1" d="m1892.93,1379.46c-12.9-6.3-27.87-4.93-41.93-4.88-16.4.07-32.79.1-49.19.19-2.41-1.69-4.9-3.36-7.45-5.03,8.29-1.11,74.75,3.35,70.88-5.3,16.09-22.33-32.86-16.56-44.72-16.24-17.63,1.86-35.63,1.73-53.14,2.41-2.11-1.53-4.23-3.06-6.34-4.59,21.3.32,43.06,3.8,63.3-4.01,5.48-2.11,7.12-8.81,1.67-12.08-11.15-6.7-26.33-5.96-39.05-6.37-9.71.75-46.96-3.26-50.65,4.33-2.53-1.87-5.07-3.75-7.59-5.62,21.21-5.61,44.91.14,65.49-8.46,22.12-26.14-81.73-16.53-93.17-12.37-3.1-2.36-6.18-4.73-9.25-7.09,23.3-1.14,46.6-2.27,69.9-3.41,7.43-.36,10.04-11.61,1.86-12.98-29.47-3.83-61.84-8.09-90.54-.33-.86.01-1.75.02-2.71.03-3.66-2.88-7.29-5.75-10.9-8.63,21.13-.87,42.14-3.47,62.79-7.8,6.59-1.38,6.77-11.47,0-12.74-27.35-3.83-60.69-13.8-85.23,2.38h-.15c-4.66-3.81-9.28-7.59-13.87-11.41,19.9,1.87,41.64-1.39,60.95-3.82,8.11-1.15,5.65-12.66-1.86-12.98-26.11-.46-52.76-2.63-78.68.29-3-2.57-5.98-5.13-8.95-7.69,11.9-1.66,37.09,3.53,39.59-.08,7.21-1.95,18.21-.22,23.68-5.04,5.09-1.84,7.96-9.28,1.71-11.91-11.57-4.88-23.72-2.29-35.88-1.36-13.45,1.03-26.94,1.47-40.43,1.39-2.27-.01-3.97.82-5.09,2.07l-.75.06c-3.96-3.44-7.91-6.88-11.87-10.32,12.72-.76,25.43-1.53,38.15-2.29,9.22-1.48,30.25,2.76,28.38-11.26-.86-11.88-75.65-7.41-85.88-3.19-2.51-2.17-5.02-4.33-7.55-6.48,13.65-2.56,53.03,4.14,54.45-13.19.36-3.53-3.5-6.66-7-6.61-21.78,1.36-46.94-.86-67.81,2.67-4.98-4.12-10.03-8.24-15.16-12.36,13.35,1.98,27.29,1.33,40.82.92,5.05-.26,12.8.45,17.26-2.11,11.51-9.8-4.82-17.52-14.76-17.64-13.48-1.89-27.12-.67-40.67,0-4.47-1.98-7.79-2.46-6.26.38-4.36.45-10.96-.48-13.11,3.8l-1.29.3c-2.48-1.93-5.02-3.85-7.56-5.74,16.54-1.46,33.11-2.59,49.63-4.17,6.98-.13,13.8-8.05,8.21-13.67-4.56-4.08-10.05-4.98-16.1-5.53-9.35-1.35-62.33.83-65.82,7.87-18.89-9.61-43.21-9.01-64.12-10.64-175.75-10.4-351.96,8.63-527.66,12.82-21.77-.42-43.83-2.8-65.23,2.33-8.04,1.93-5.68,12.38,1.86,12.98,17.62,2.35,36.22.39,53.4,4.06-1.26.87-2.51,1.75-3.75,2.63-21.91-1.97-44.07-1.62-66.05-.58-4.97.27-9.15,5.51-6.04,9.94,10.03,13.64,29.61,8.75,44.46,10.71-2.42,1.81-4.84,3.62-7.25,5.45-.62-1.74-38.57-.49-40.44-.84-9.75.82-23.27-3.28-29.91,5.49-7.88,20.57,28.93,16.05,41.42,18-3.37,2.7-6.73,5.41-10.08,8.12-14.46-5.51-32.12-4.04-47.76-4.61-9.8.22-29.23-.92-31.29,11.74-3.32,13.91,42.65,14.16,52.61,14.47-.23.19-.47.39-.7.58-19.81.88-39.47-3.74-59.31-.75-10.15-1.33-23.65-2.47-27.91,6.47-3.08,6.45,2.64,10.44,8.69,11.29,17.65,2.52,35.48,3.87,53.33,3.9-3.45,2.89-6.9,5.77-10.33,8.67-21.24-.23-42.47-.01-63.7.1-6.5.05-15.57-1.48-21.51,1.64-5.62,2.95-6.42,9.96-1.72,14.07,16.92,10.63,39.69,6.44,59.11,7.99-5.58,4.82-11.15,9.66-16.7,14.52-26.98.3-55.37-6.29-81.42,2.33-4.59,1.78-7.29,7.29-3.09,11.05,16.15,12.58,41.06,5.87,60.61,7.74-5.23,4.68-10.46,9.36-15.66,14.07h-.22c-1.08-.82-2.51-1.34-4.3-1.33-14.44.06-28.88-.68-43.22-2.4-12.07-1.44-26.62-3.44-33.55,8.6-6.75,16.25,29.14,9.49,38.34,10.83,8.51.04,17.03.09,25.54.14-4.41,3.93-8.52,8.16-13.13,11.88-7.33,1.3-15.07-.22-22.42-.79-20.97-1.55-42.5-.41-62.48,6.17-7.46,2.45-6.18,12.56,1.86,12.98,19.38,1.02,38.78,1.35,58.19,1.01-27,23.91-66.49-5.17-97.36,11.54-6.31,2.9-3.06,13.52,4.07,12.26,6.06,1.64,16.47-1.82,23.31-2.09,13.4-1.09,24.24,6.15,37.67,5.44-.91.85-1.82,1.71-2.72,2.56-32.02,1.37-63.36,8.48-95.46,9.36-9.34.8-8.83,13.95.75,13.22,23.14.74,48.42.19,72.06,1.31-.46.55-.92,1.1-1.37,1.64-26.33,4.77-53.3,3.61-79.98,4.94-6.49.21-15.55,1.32-15.53,9.37.34,16.06,32.7,8.45,42.24,7.24,12.35.62,35.95-2.2,48.31-1.72-3.74,25.62,62.77,21.43,78.7,16.69,213.88-63.68,334.81-17.25,564.52-34.73,104.67-7.96,320.55-4.44,425.22,2.35,117.08,7.6,209.35,19.42,224.25,1.14,7.21-8.85,7.84-16.01,13.35-21.21,4.02-3.8,64.22,3.58,82.27.13-.1-1.53-.72-2.93-1.71-4.21,2.71-3.08,2.89-8.26-1.42-10.37Zm-133.14,30.96c-128.15,0-79.58-10.4-305.66-16.53-128.6-3.49-317.65,9.84-446.39,5.05-130.82-7.98-263.39-10.38-391.62,19.28-62.93,17.57-127.77,22.63-42.32-42.45,57.72-46.7,109.27-100,167.88-145.91,22.09-17.31,45.74-32.82,67.67-50.28,34.05-24.73,64.81-61.57,110.28-63.8,158.4-3.84,316.67-20.5,475.2-13.12,16.64.85,35.11-1.55,49.83,7.44,65.07,51.58,125.95,108.99,189.79,162.17,24.64,21.08,50.2,41.16,75.85,61.13,11.39,11.84,130.69,77.02,49.5,77.02Z"/><path class="cls-1" d="m1549.22,1299.57c-24.03-28.51-49.05-56.28-75.05-83.21-13.11-13.57-26.46-26.94-40.04-40.08-12.77-12.35-10.41-11.82-24.92-22.38-14.38-10.47-32.58-18.73-50.78-13.32-6.57.22-13.13.5-19.65.78-33.9,1.45-67.8,2.9-101.7,4.34-67.47,2.88-149.88-7.81-217.35-4.93-28.91,1.23-58.4,2.24-86.35,9.97-27.85,7.69-50.66,22.82-70.1,42.9-19.43,20.06-36.16,42.19-56.24,61.74-24.46,23.82-51.41,45.23-78.43,66.4-7.84,6.14-17.16,10.48-5.04,14.61,5.48,1.87,14.1.27,19.83-.31,49.43-5,98.93-8.57,148.44-13.25,50.83-4.8,103.04-12.46,154.18-12.46,106.4-5.74,213.02-3.13,319.47-.25,29.87.81,59.74,1.64,89.61,2.31,29.7.67,59.6,1.87,89.17-1.59,6.27-.73,8.91-6.58,4.95-11.28Zm-84.16-.13c-26.89-.57-53.77-1.29-80.65-2.02-53.1-1.44-106.2-2.93-159.32-3.47-53.07-.54-106.17-.13-159.19,2.23-53.02,2.36-105.86,7.02-158.66,12-52.12,4.91-104.23,10.04-156.5,13.31,16.58-13.08,32.97-26.38,48.66-40.43,20.97-18.77,39.45-39.2,57.69-60.3,16.97-19.65,35.11-38.86,59.69-50.05,25.54-11.63,54.64-14.3,82.58-15.79,64.24-3.42,143.52,8.02,207.8,5.28,33.24-1.42,66.47-2.84,99.71-4.26,32.18-1.38,68.19-11.04,95.2,9.35,13.87,10.47,11.11,9.63,23.47,21.61,25.61,24.83,50.38,50.44,74.25,76.77,10.51,11.6,20.84,23.35,31.01,35.22-21.86,1.58-43.83,1.02-65.74.55Z"/><path class="cls-2" d="m489.08,965.05c-.92-7.87-3.2-14.75-9.29-20.14-6.42-5.67-13.88-7.88-22.28-8.52-11.08-.84-22.53.24-33.66.19-23.19-.11-46.36-.84-69.55-1.08-23.14-.24-46.32.02-69.4,1.88-22.45,1.81-44.45,3.89-67.02,3.21-12.65-.38-25.33-1.46-37.98-1.48-8.8-.01-17.41,2.33-23.85,8.58-6.65,6.46-9.3,16.6-6.63,25.44,1.58,5.22,5.49,9.68,10.33,12.11,5.06,3.95,12.25,5.79,18.74,4.91,4.51-.62,9.07-2.19,13.51-1.17,5.97,1.37,10.05,7.24,11.23,13.25,1.18,6.01.05,12.21-1.01,18.24-9.14,52.12-12.92,105.19-11.28,158.08,13.16,3.88,29.58,6.92,38.73-3.29,4.14-4.62,5.65-10.97,6.94-17.04,9.94-46.67,15.89-94.19,17.76-141.88.3-7.74,1.59-17.16,8.76-20.09,2.27-.93,4.79-.99,7.24-1.05,34.81-.75,69.63-1.5,104.44-2.25,2.08-.04,4.38,0,5.91,1.41,1.8,1.67,1.72,4.49,1.53,6.94-4.39,54.68-2.6,112.61,9.79,165.73,1.77,7.61,5.18,14.47,12.8,16.76,5.23,1.57,12.93,2.28,17.33-1.54.17-.15.32-.32.48-.48.23.08.47.16.72.23,10.06,2.64,11.36-9.66,11.69-16.35.46-9.09.53-18.24.3-27.42-1.24-48.52-11.03-98.03-17.86-145.6,18.98-.92,37.97-1.85,56.95-2.77,3.18-.16,6.53-.36,9.21-2.09,3.23-2.08,4.84-6.05,5.05-9.89.11-2-.13-3.95-.64-5.84.88-2.14,1.27-4.49.98-6.98Z"/><path class="cls-1" d="m475.86,931.28c-9.82-5.33-22.42-5.64-33.96-5.55-82.17.68-164.34,1.37-246.51,2.05-14.92.12-35.76-.31-47.69,10.42-9.53,8.57-13.87,36.86-8.98,48.48,4.76,11.34,15.4,11.96,27.7,11.96,14.41,0,25.9.45,36.59.45-5.57,52.43-11.13,104.86-16.7,157.28-.88,8.27-4.29,19.76-.35,27.09,5.59,10.42,16.74,7.65,28.56,7.19,11.98-.46,18.76,1.99,23.18-8.98,4.42-10.97,11.14-38.43,12.31-50.2,4.34-43.54,8.67-87.07,13.01-130.61,38.07-.33,76.13-.66,114.2-1-3.17,55.79-.89,111.89,6.81,167.24.86,6.15,1.68,9.58,4.1,15.3,3.29,7.76,9.38,8.22,16.96,8.52,6.95.27,13.91.5,20.87.5,3.6,0,7.2-.07,10.8-.23,2.85-.12,5.98-.2,8.14-2.36,1.68-1.68,1.34-5.57,1.38-7.73.12-5.85-1.04-11.66-1.66-17.46-6.12-55.27-12.25-110.53-18.37-165.8,16.16-.54,32.32-1.08,48.49-1.62,5.39-.18,11.22-.53,15.33-4.02,6.05-5.14,5.6-14.45,4.63-22.33-1.48-12.03-3.41-25.01-11.99-33.56-2.06-2.05-4.36-3.71-6.83-5.06Zm-245.35,219.56c-1.26,6.33-2.57,12.65-3.96,18.95-.32,1.44-.4,4.46-1.43,5.53-1.4,1.47-5.65.72-7.65.72-3.27,0-6.53,0-9.8,0-1.87,0-5.93.84-7.45-.31-2.63-1.99-.8-9.32-.49-12.24,2.77-26.28,5.55-52.57,8.32-78.85,2.99-28.29,5.97-56.58,8.96-84.88,5.55.13,11.1.26,16.66.37,4.85.09,9.69.16,14.54.23-1.99,50.54-7.84,100.86-17.69,150.48Zm197.23-11.6c.71,6.63,1.42,13.25,2.13,19.88.28,2.59.57,5.17.85,7.76s.85,4.91.91,7.41c.01.42,0,.84-.13,1.24-.49,1.47-2.53,1.46-3.78,1.47-1.51.01-3.01.02-4.52.01-3.01,0-6.03-.04-9.04-.1s-6.03-.16-9.04-.28c-1.18-.05-2.4-.02-3.58-.15-.53-.06-1.07-.19-1.4-.64-.59-.79-.64-2.09-.82-3.02-5.31-26.83-7.17-54.9-8.56-82.18-1.45-28.44-.42-56.64.24-85.06.04-1.89-.39-5.33,1.47-5.88.96-.28,18.51-1.95,20.23,1.56,1.44,2.93,1.04,7.59,1.37,10.74,1.49,13.92,2.99,27.84,4.48,41.75,3.06,28.5,6.12,57,9.18,85.49Zm50.84-159.68c-2.26,1.82-5.59,2.05-9.68,2.27-5.71.3-11.42.61-17.13.9-10.99.55-21.98,1.04-32.97,1.47-21.98.87-43.97,1.51-65.97,1.92-43.99.83-88,.74-131.99-.26-12.32-.28-24.63-.64-36.95-1.06-6.87-.24-14.09.1-20.89-.9-3.99-.58-7.37-2.2-9.01-6.05-3.11-7.3-.41-15.87,1.34-23.16,1.86-7.73,7-10.14,15.03-11.12,12.99-1.59,26.51-1,39.58-1.31,27.2-.65,54.41-1.15,81.62-1.5,27.87-.36,55.74-.56,83.62-.6,26.91-.04,54-.74,80.89.38,11.09.46,19.05,4.99,22.26,15.89,1.52,5.17,3.97,10.92,3.3,16.42-.41,3.38-1.47,5.44-3.05,6.71Z"/><path class="cls-2" d="m289.61,786.06c-2.01-9.45-7.78-19.65-16.67-23.7.7-2.54,1.31-5.1,1.8-7.69,3.9-20.51,2.89-41.03,1.34-61.71-.7-9.37-7.78-18.46-18-18-9.15.41-18.75,7.94-18,18,.8,10.69,1.6,21.39,1.51,32.11-.04,4.87-.33,9.71-.74,14.56-.04.45-.07.8-.09,1.09-.13.91-.27,1.81-.43,2.72-.48,2.77-1.07,5.52-1.77,8.24-.49,1.9-1.04,3.79-1.65,5.66-.35,1.07-.71,2.12-1.1,3.18-.08.22-.45,1.14-.7,1.76-.28.6-.67,1.44-.76,1.64-.49,1-1,1.99-1.53,2.97-1.2,2.21-2.58,4.28-3.93,6.4-.13.21-.56.77-.83,1.12-.46.55-.92,1.09-1.37,1.64-1.97,2.36-3.97,4.75-5.73,7.27-3.08,4.39-5.15,9.57-6.07,14.85-1.01,5.75-1.26,11.6-1.85,17.4-.26,2.54-.56,5.07-.87,7.6-.02.17-.13,1.01-.2,1.52-.19,1.38-.39,2.75-.59,4.13-1.54,10.42-3.33,20.81-4.8,31.25-1.55,11.03-2.97,22.1-3.37,33.24-.47,13.22-.84,29.66,13.59,35.75,5.73,2.42,11.71,2.06,17.79,1.95,5.42-.09,10.83-.23,16.25-.42,12.6-.43,28.68.85,35.43-12.38,3.12-6.11,2.86-13.01,3.1-19.7.19-5.31.39-10.61.58-15.92.4-10.94.8-21.89,1.2-32.83.76-20.86,2.84-43.11-1.54-63.71Z"/><path class="cls-1" d="m298.55,816.97c-.16-10.29-.4-20.58-.62-30.85-.06-2.82-.23-6-2.34-8.13-3.1-7.05-9.72-11.6-12.33-18.97-3.05-8.65-2.17-18.15-1.9-27.14,0-8.75.53-17.54.8-26.29.23-7.78,2.39-15.26-.17-23.01-2.94-8.87-14.12-14.57-23.05-14.57-10.81,0-22.27,4.8-25.08,16.29-1.55,6.3-1.38,12.86-1.62,19.3-.48,12.69-1,25.46-2.04,38.12-.62,7.47-.94,16.15-5.81,22.29-5.94,7.51-8.39,6.2-14.59,12.4-6.47,6.47-5.53,17.4-6.38,25.8-1.96,19.45-3.31,38.96-4.24,58.49-.88,18.54-3.24,38.45.6,56.77,2.92,13.92,17.76,13.62,29.25,14.34,14.32.9,28.73.52,42.88-1.96,10.15-1.78,21.35-6.13,22.85-17.74,4.07-31.51,4.3-63.35,3.79-95.12Zm-47.23-133.16c4.75-2.97,10.67-1.63,15.15,1.34.51.87.85,1.96,1.03,3.34,0,.02,0,.05,0,.07.04,2.75.05,5.49.06,8.24-6.79-.32-13.57-.03-20.36.46.12-.93.23-1.86.37-2.79.52-3.51.4-8.57,3.74-10.66Zm-32.95,111.09c.54-5.31,4.12-8.14,7.95-11.1,5.96-4.62,11.37-10.15,14.64-17.03,3.68-7.74,3.73-16.12,3.95-24.52.26-10.24.12-20.64.83-30.88,7.25-.55,14.5-.91,21.75-.57-.12,6.9-.33,13.8-.65,20.7-.64,13.87-1.17,26.41,4.57,39.45,1.95,4.43,10.16,9.98,12.11,15.44,1.53,4.31.74,9.91.85,14.41.1,4.12.18,8.23.27,12.35-22.72-.91-45.4.18-67.94,3.11.48-7.14.96-14.27,1.68-21.36Zm64.18,93.36c-.63,6.39-.52,14.11-2.85,20.13-1.13,2.93-3.02,5.42-6.29,6.79-8.87,3.7-19.22,3.13-28.61,3.11-8.96-.02-18.18-.53-26.73-3.47-4.38-1.51-5.06-3.26-5.32-7.71-.36-6.08-.5-12.17-.49-18.25,23.4-2.21,46.91-2.82,70.4-1.81-.04.41-.07.82-.11,1.23Zm1.66-22.47c-.12,2.43-.27,4.86-.43,7.29-23.76-1.07-47.54-.49-71.21,1.73.56-14.45,1.81-28.9,3.02-43.28.03-.38.06-.75.09-1.13,22.92-3.19,46.1-4.21,69.22-3.24.15,12.88-.03,25.77-.69,38.63Z"/><path class="cls-2" d="m2070.43,267.64s.08.04.12.06c0,0,0-.01,0-.02-.04-.02-.07-.03-.12-.05,0,0,0,0,0,0Z"/><path class="cls-2" d="m2141.5,1016.48c-.77-20.86-1.54-41.72-2.31-62.58-.41-7.53,1.11-16.56-2.54-23.44,6.48-38.8-2.13-77.68-2.84-116.5,9.65-22.46,4.65-49.3,4.7-73.41-1.25-21.96-2.51-43.91-3.76-65.87-3.88-75.09-9.32-150.23-12.56-225.22,2.63-10.32-3.47-21.13-4.01-31.6-.38-3.38-.69-6.16-.91-9.35-1.79-19.7,1.45-39.38-.3-59.08-4.52-26.22-4.33-52.57-4.36-79.11-1.45-29.96-6.89-95.78-32.83-112.96-12.42-5.91-29.25-8.13-42.41-4.32-37.44-8.04-76.79-6.43-115.02-8.46-2.88-.02-4.84,1.36-5.87,3.27-60.85,2.19-216.44-10.89-259.58,18.88-6.98-6.4-12.1-.14-14.49,6.88-20.91,7.45-36.03,80.04-39.91,101.89-7.69,25.41-8.75,52.48-12.23,78.71-8.94,70.25.38,140.67-8.61,210.47-7.19,153.56-3.7,307.54-8.96,461.1.34,11.15-.11,46.54,16.12,37.59,16.46,9.87,37.43-1.3,45.79-17.57,5.47-10.65,7.26-22.46,10.36-33.89,1.36-5.04,2.22-9.99,8.18-10.66,104.94-1.86,248.08-3.39,354.43-5.06,107.64-16.71,41.36,26,81.74,71.04,15.68,16.97,42.04,7.98,48.99-12.73,4.75-12.03,3.66-25.38,3.19-38.02Zm-485.63-744.76c2.88-.55,5.25-2.72,4.91-6.57-1.46-19.5,7.62-34.81,14.7-52.8,86.62-11.93,174.35-8.82,261.56-10,27.85,3.39,55.71,7.17,83.79,7.72,34.6,9.67,28.89,76.01,30.88,104.54-3.04,7.61-4.43,16.15-10.86,21.88-49.39-.06-98.03,10.8-147.35,12.53-68.84,1.77-138.23,2.57-206.82-.34-44.6,9.92-30.5-50.85-30.8-76.96Zm-14.48,192.62c.9-18.46-3.14-45.47,6.74-61.23,8.02-4.64,18-5.42,27.01-6.76,12.72-1.53,25.51-2.3,38.31-2.44,4.95-.05,9.81-2.21,13.37-5.64,74.89-.19,150.23,2.5,224.75-6.25,7.7,5.16,17.71.76,26.24,0,14.71-1.3,29.91-.81,44.54.69,5.4.62,12.97,3.05,16.76,5.91,5.5,4.56,5.87,13.14,12.81,16.56,4.85,31.53,15.4,62.11,18.5,93.83-9.77,4.12-13.91,24.85-17.96,33.53-.75,1.97-4.45,11.8-5.16,13.59-44.15,4.57-88.6,2.4-132.87,1.42-82.96-2.9-168.01,6-249.94,2.44-8.88-1.32-17.54-4.16-24.56-9.88.1-5.27-.13-10.65-1.12-15.79,5.17-19.04,2.87-41.78,2.57-60Zm-5.1,208.48c-.39-24.38-1.17-48.87-.65-73.28,3.5-3.79,10.24-9.31,11.75-14.44,52.38,9.03,106.32.82,159.22,1.15,82.65-4.35,165.53,5.33,247.98-2.7-2.22,12.33,9.17,21.08,20.29,20.68.64,2.29,1.83,4.37,3.39,6.18,1.69,45.28,6.32,91.9-7.04,134.34-144.44-.95-288.9,2.01-433.17,8.98-.74-26.97-1.33-53.94-1.75-80.91Zm443.57,256.16c-4.45,3.64-6.84,6.72-12.99,6.95-118.02-1.07-236.04-7.74-354.1-5.03-13.92.31-27.83.74-41.73,1.33-6.96.29-13.91.62-20.86.99-2.45-.52-4.36-2.49-6.2-3.83.73-45.63-4.28-91.87-4.78-137.71,144.41-6.92,289-9.94,433.57-8.92,7.91,48.35,8.19,97.41,7.09,146.22Z"/><path class="cls-1" d="m2087.73,848.2c-4.55-94.04,1.81-67.15-117.09-70.23-103.2,2.33-206.78-2.28-309.72,6.25-8.49.9-19.1.66-25.33,7.47-10.01,10.94-7.6,27.66-7.01,41.14,1.08,24.7,1.96,49.41,3.19,74.11,1.7,15.03.16,29.52,19.59,30.66,113.87.58,227.83.02,341.72.29,105.49-3.64,97.81,25.13,94.66-89.7Zm-13.48,73.22c-.8,3.49-4.21,2.51-7.22,2.51-135.26-.05-270.51-.13-405.77-.19-5.04-.46-14.75,2.41-14.58-5.24-1.3-28.93-1.96-51.96-4.39-82.06.55-12.72-6-33.28,10.47-37.81,17.7-2.04,35.6-2.6,53.39-3.7,115.03-3.12,230.18-2.06,345.26-3.6,5.98.75,16.65-3.21,18.41,4.74,4.59,41.44,5.86,83.7,4.43,125.35Z"/><path class="cls-1" d="m2084.88,705.12c-1.2-25.45-1.03-65.73-4.74-90.64.04-33.73-25.42-34.59-52.18-32.66-117.06.13-234.12.33-351.18,1.05-16.15.25-37.13-1.84-44.08,14.01-11.83,34.63-4.5,76.3-3.49,112.48,2.54,24.09-4.59,56.51,31.25,49.56,85.9-4.3,172.09-6.24,258.15-6.03,47.17-1.38,94.84,4.21,141.77.32,26.02-5.24,28.07-25.54,24.5-48.08Zm-15.84,28.21c-8.28,9.37-24.08,7.24-35.02,6.63-118.95-6.07-238.08,1.81-357.03,4.31-6.67.19-24.28,4.1-29.32-1.19-3.75-3.94-3.61-19.26-4.25-24.75-1.17-9.95-1.8-19.97-2.03-29.98,5.39-103.29-19.75-91.17,77.6-91.7,109.46-.31,218.94-1.14,328.39-.83,5.74.07,13.78.07,16.5,6.25,6.12,25.31,4.54,52.36,6.11,78.54.31,9.87.66,19.74,1.33,29.6.49,7.16,3.06,17.07-2.29,23.13Z"/><path class="cls-1" d="m2069.92,501.77c-2.25-32.96-6-65.96-12.4-98.39-4.37-20.8-21.49-27.02-40.94-24.89-119.12,4.12-238.77,4.34-357.75,9.26-30.58,5.11-22.2,49.28-24.4,71.91-.5,15.52-.61,31.06-.33,46.59.21,11.75.16,33.33,9.51,42.68,9.9,9.9,48.87,7.05,73.22,6.22,59.76-2.05,119.46-.27,179.25,2.33,40.33,1.24,80.76,3.21,120.93-.81,36.1-3.35,58.84-14.24,52.91-54.9Zm-17.74,26.57c-15.43,25.57-105.39,15.31-134.47,15.54-59.63-3.19-119.27-4.86-178.95-3.56-17.67-.16-74.99,7.93-82.56-2.37-15.23-28.45-7.77-67.22-7.9-98.22.79-10.58-1.77-37.39,13.34-38.16,20.35-1.03,40.66-1.68,61.04-1.68,96.34-.76,193.01-3.86,289.25-8.18,8.64-.63,22.84-2.05,28.47,6.4,11.29,22.38,7.37,51,10.62,75.34-.16,14.89,7.86,43.39,1.16,54.89Z"/><path class="cls-1" d="m2056.71,272.46c-.51-5.82-.96-11.64-1.4-17.46-.86-11.36-.25-23.83-4.31-34.59-1.89-5.02-6.63-8.14-11.36-10.62-11.14-5.84-24.15-8.32-36.45-10.33-37.43-6.12-75.92-6.38-113.75-6.11-39.62.28-79.23,2.01-118.78,4.34-20.14,1.19-40.27,2.76-60.41,3.88-38.71,2.87-58.03,17.37-57.63,58.41.22,22.48-14.32,79.32,4.44,93.77,8.47,4.99,19.5,2.87,28.83,2.95,75.35.66,162.72-1.63,237.96-5.66,28.83-1.55,57.72-2.55,86.45-5.56,10.35-1.09,30.7-.09,39.33-6.31,12.44-11.64,11-30.86,9.17-46.18-.82-6.83-1.49-13.68-2.09-20.53Zm-14.63,53.45c-20.92,11.41-48.91,6.05-72.08,8.47-77.35,4.79-154.82,8.06-232.33,8.41-11.13.05-34.26,0-45.39,0-16.63.76-35.51,6.17-31.04-18.68.77-23.46,3.93-47.21,5.31-70.71.48-9.55.85-19.64,8.58-26.51,28.05-19.33,102.99-12.74,138.13-16.76,64.97-2.33,130.74-6.01,195.23,4.14,31.56,2.96,33.66,12.42,32.97,41.86.04,17.15,10.12,57.22.61,69.77Z"/><path class="cls-1" d="m2146.01,940.16c-4.72-232.19-8-464.98-27-696.49-4.87-25.72-2.97-62.23-18.65-83.26-6.35-7.22-15.9-10.32-25.05-12.08-98.37-18.21-198.82-5.4-298.05-5.62-45.8.54-95.25-2.21-137.09,19.45-42.77,19.71-43.34,140.66-51.15,185.97-23.45,213.15-22.98,427.96-20.2,642.1.3,23.01.63,41.9.95,64.91.05,3.63,2.36,5.8,5.09,6.5-3.83,3.64-2.25,12.1,4.71,12.36,9.62.36,19.23,1.11,28.86.95,19.76.53,34.39-3.25,35.35-25.66,2.4-8.68,1.19-47.48,12.47-45.66,91.67-2.42,190.02-.39,281.4-1.82,39.25,2.05,90.88-4.37,128.83,3.34,3.46,5.96,2.36,13.85,2.79,20.42,3.04,18.84-1.98,50.61,24.43,51.72,20.2,1.41-4.14,1.2,16.08,1.53,9.53.15,20.26.99,27.69-6.21,13.74-15.98,6.79-40.33,8.6-59.75.13-24.25.1-48.49-.06-72.74Zm-13.92,69.75c-.06,11.96-.08,23.92-.29,35.87.61,17.31-5.51,20.9-22.01,19.08-12.26,0-12.6,3.06-19.72-1.78-4.99-3.39-4.05-11.51-4.64-16.82,0-9.9-2.24-20.28-3.28-30.14-.98-9.36-1.11-21.11-10.81-25.96-6.25-3.12-58.48-1.95-65.24-1.99-109.86-.73-223.03.4-333.07,1.2-10.73.15-25.61-1.96-33.16,7.67-5.61,7.2-5.47,17.17-6.59,25.81-1.25,9.62-2.06,19.56-3.82,29.1-1.55,8.44-23.62,9.25-33.36,7.98-4.02-.52-10.92-2.96-14.28.16,2.35-258.01-7.85-519.78,29.46-777.15,6.5-34.21,4.16-74.67,27.31-102.57,35.95-25.65,84.34-22.61,126.59-23.65,94.25-.82,188.49-8.88,282.53,1.28,12.88,1.16,28.28,1.25,39.2,9.12,11.19,8.07,12.58,30.37,14.88,42.76,3.56,19.13,5.68,38.5,7.05,57.9,11.04,247.23,23.83,494.57,23.25,742.13Z"/><path class="cls-2" d="m649.92,436.83c2.15-19.66-2.64-101.09-7.23-120.34-1.44-6.05,0-16.72-13.7-18.98-61.66-10.18-116.89-12.84-178.97-3.7-8.52,2.07-19.53,11.34-22.86,19.54-2.57,49.56-7.78,144.86-6.37,193.97-6.04,12.8-1.55,28.8,8.31,40.49,10.58,8.77,24.16,12.3,36.04,6.71,52.22.84,97.24,2.12,149.46.91,23.01,1.49,35.97-11.68,34.86-34.3.78-30.21.95-54.1.46-84.31Z"/><path class="cls-1" d="m627.8,459.5c-1.15-38-3.61-75.94-6.1-113.88-.65-7.17-.09-17.32-4.99-23.25-12.88-9.93-31.6-9.17-47.19-10.1-27.05-1.75-54.18-2.24-81.28-1.47-30.67-.99-46.2,1.87-43.82,36.99-1.44,43.93-2.87,87.85-4.31,131.78-.44,13.54-4.08,30.01-.76,43.3,5.2,20.78,36.93,11.95,51.83,11.99,30.95.09,61.9-.02,92.85-.34,9.9-.1,20.83,1.87,30.16-2.41,11.44-5.25,12.98-15.55,13.24-26.7.35-15.32.67-30.53.37-45.92Zm-44.76,61.04c-35.73.37-71.47.45-107.21.26-3.36-73.78,48.3-53.63,43.92-85.21-5.69-16.93-11.34-36.46-.43-52.69,13.66-16.73,37.98-14.22,45.32,6.99,3.49,15.55-2.94,28.45-4.96,42.97,4.18,34.56,37.64,16.47,32.71,87.61-3.12.02-6.25.03-9.37.07Zm28.85-6.02c-1.06,3.32-2.89,4.72-5.46,5.33,1.92-40.95-3.46-54.3-31.92-82.41,1.99-22.36,11.35-48.28-3.84-68.5-15.56-21.12-49.1-16.01-62.27,5.15-12.47,17.72-10.91,41.09-3.55,60.51,9.38,15.73-45.68,7.09-43.01,86.16-.43.03-.83.1-1.22.19-2.37.58-4.9-.28-6.52-2.1-.61-.68-1.07-1.39-1.24-2.05-.86-2.08.13-6.46.2-8.67.56-23.93,2.88-79.65,3.53-104.45,1.35-23.78.46-47.88,2.44-71.58,2.13-10.2,16.62-5.88,24.25-7.16,35.68-1.19,71.44-.28,107,2.91,7.22.36,16.82,1.94,16.81,11.05,2.85,35.81,4.73,71.76,6.29,107.66-.12,22.44,3.67,45.92-1.48,67.95Z"/><path class="cls-1" d="m656.47,454.97c-1.64-39.58.97-79.52-3.82-118.88-1.84-16.39-1.06-41.62-23.16-42.97-52.49-10.94-108.25-9.65-161.74-7.39-58.64,6.27-46.61,29.89-50.66,76.52-3.46,49.99-4.47,100.16-2.96,150.25,1.89,22.83-2.47,49.96,32.47,49.8,39.92,2.79,79.94.17,119.9-.21,19.99-2.36,77.38,6.16,85.4-14.37,8.12-29.75,3.15-62.06,4.57-92.76Zm-170.9,94.27c-25.07.32-62.24,4.78-57.28-31.8-2.07-62.29-.27-124.71,5.3-186.79.63-7.04-.95-16.28,4.64-21.57,29.73-19.18,116.77-8.6,154.68-7.57,12.23,2.25,28.56-1.27,36.8,9.97,7.22,10.9,9.54,25.39,10.59,38.14,1.1,58.81,4.71,118.09.11,176.81-.82,10.49-6.65,21.37-18.57,20.81-45.39,1.23-90.86,1.07-136.27,2.01Z"/><path class="cls-2" d="m1455.34,244.52c7.42-57.28-59.39-48.26-96.88-48.95-110.5-1.45-221.03-.66-331.5,2.36-41.59,1.14-83.18,2.6-124.75,4.37-19.18.29-31.58,11.2-27.41,41.25.18,1.29,6.97,11.93,5.97,12.79,17.6,22.39,14.59,43.09,12.82,70.31-8.1,124.63,2.09,251.43,1.53,377.1,3.45,31.59-10.37,96.93,18.19,114.85,15.24,10.17,32.88,5.16,45.54-5.9,128.63,11.25,261.62,2.48,391.62,8.77-.39,9.18,3.3,18.37,14.68,19.77,20.54,6.03,43.2,5.62,63.89,2.19,20.69,0,14.02-18.39,14.24-34.97,1.7-45.61,7.52-91.22,2.91-136.56,3.97-86.95-8.35-173.66-7.62-260.54,0,0-.57-81.74-.57-81.74-4.29-20.11-8.91-41.05-.86-59.83-.37-1.92-.93-3.8-1.68-5.61,8.63-2.63,18.46-9.97,19.87-19.65Z"/><path class="cls-1" d="m1437.28,271.21c5.44-2.17,10.34-5.54,13.79-10.4,7.78-10.95,8.56-26.13,7.69-39.07-.84-12.53-7.71-28.72-32.86-28.72-41.72,0-68.14-.48-109.97-.64-44.14-.17-88.27-.32-132.41-.43-55.05-.14-111.41-.1-166.95.6-28.16.36-56.31.88-84.46,1.64-15.67.42-50.12-4.1-60.13,11.91-11.39,18.23-5.8,55.19,12.96,66.91,4.73,2.98.48,139.83.49,145.04,0,32.78.23,65.54.47,98.32.31,43.62.67,87.25.58,130.88-.04,22.04-.2,44.09-.52,66.13-.05,3.35,2.08,31.5-.29,32.61-4.58,2.16-8.67,5.25-11.66,9.46-5.58,7.84-5.75,18.01-6.1,27.26-.39,10.56-.04,21.11.92,31.62.17,1.85.91,3.31,1.97,4.4.82,2.5,2.94,4.53,6.37,4.55,4.11.02,8.22.04,12.33.06.11,1.38.21,2.75.33,4.13.43,5.06.77,10.11,3.76,14.42,2.88,4.15,7.63,6.56,12.48,7.6,11.19,2.39,23.56,1.74,34.93,1.43,12.47-.34,25.03-1.34,37.35-3.31,11.31-1.81,17.05-9.24,17.55-20.44.05-1.11.08-2.23.11-3.35,48.52.2,97.04.37,145.56.49,44.23.12,88.46.2,132.7.26,23.57.03,47.19.32,70.8.08.26,2.37.69,4.67,1.38,6.86,2.23,7.16,7.66,11.95,14.5,14.65,7.19,2.83,15.24,3.17,22.86,3.72,9.7.7,19.42,1.01,29.14.92,8.18-.07,17.49.53,25.19-2.69,10.52-4.4,13.66-15.17,14.18-25.53.21-4.24.41-8.47.6-12.71.48-11.01.86-22.03,1.13-33.04,1.82-73.65.93-147.59-2.39-221.18-2.64-58.44-7.45-226.34-14.34-284.43Zm-554.87,538.1c-.62-8.53-.83-17.08-.55-25.64.22-6.7-.29-15.48,4.23-21.01.27,8.46.62,16.92,1.06,25.37.37,7.11.8,14.21,1.29,21.31-2.01-.01-4.02-.02-6.03-.03Zm100.39-262.11c.55,85.38-1.05,170.77-.13,256.14.04,3.65.09,7.3.14,10.95.1,7.27-1.12,14.05-7.84,17.95-11.87,6.89-7.29-11.88-7.19-18.88l.31-22.54c.06-4.39.04-9.08-2.39-12.73s-8.23-5.36-11.24-2.17c-2.2,2.34-1.95,5.99-1.61,9.19,1.51,14.23,1.85,28.59,1.02,42.88-.12,2.05-.3,4.22-1.5,5.89-1.37,1.92-3.86,2.79-6.23,2.79-9.39,0-7.03-6.18-6.75-13.44.31-8.31.59-16.62.73-24.93.3-17.21-7.41-34.42-7.11-51.63.16-9.01-13.84-9.01-14,0-.38,22.11,7.33,44.24,7.27,66.35-.01,5.06,2.15,15.34-1.22,19.49-3.72,4.58-10,2.52-14.44.33-9.58-4.74-6.36-24.54-6.77-33.03-2.26-47.33-3.13-94.49-2.88-141.84.23-44.7-.72-89.47-1.04-134.18-.16-22.87-.33-45.75-.49-68.62-.16-22.34-.32-154.26-.48-176.6,4.3.93,8.81,1.38,13.41,1.45,21.5.33,43-.37,64.49-.59,2.06-.02,4.11-.04,6.17-.06,0,44.21-.12,197.99-.28,242.2,0,8.55-.01,17.1.04,25.64Zm361.96,263.41c-20.19.19-40.38,0-60.55-.03-41.9-.05-83.81-.13-125.71-.23-54.16-.13-108.31-.32-162.47-.54-.27-17.88-.48-35.76-.61-53.65.01-.6.03-1.2.04-1.8,21.64-.22,43.27-.43,64.91-.65,83.61-.83,167.22-1.67,250.84-2.5,10.99-.11,21.98-.22,32.97-.33l.68,52.33c.03,2.38-.04,4.87-.1,7.41Zm-196.27-305.47c-37.79,2.37-75.58,4.85-113.46,5.4-12.59.18-25.19.14-37.77-.19-.03-25.4-.07.32-.1-25.08-.04-32.16-.08-173.88-.13-206.04,49.8-.5,99.6-.99,149.41-1.49-5.44,56.35-2.51,171.13,2.05,227.41Zm-151.21,19.15c38.86,1.01,77.81-.7,116.61-3.01,11.93-.71,23.85-1.43,35.77-2.14,2.65,31.09,5.62,113.27,7.78,144.31,1.74,25.05,2.92,50.14,3.03,75.25-25.7.26-51.4.51-77.1.77-29.19.29-58.37.58-87.56.87.06-2.42.3-12.71.6-27.06,1-47.07,2.68-188.96.88-189Zm343.15-23.32c-41.97-1.36-83.98-1.2-125.94.53-17.39.72-34.76,1.71-52.13,2.77-3.28-40.59-4.97-80.59-4.55-121.3.33-32.89.18-65.95,2.18-98.8.13-2.19.26-4.39.47-6.57,27.08-.27,54.16-.54,81.24-.81,31.95-.32,63.9-.64,95.85-.96-.19,55.58.77,169.61,2.89,225.14Zm.56,14.01c.35,8.31.73,67.74,1.13,76.05l1.89,145.85-169.54,1.69c-.26-56.56-6.15-163.92-10.94-220.23,43.47-2.49,86.92-4.5,130.53-4.28,15.65.08,31.3.4,46.94.91Zm-76.31-252.43c-88.81.89-177.64,1.47-266.44,2.93-22.4.37-45.68.41-68.42.35-18.45-.05-40.47,3.14-46.45-19.32-2.38-8.94-4.6-22.74.46-31.2,5.73-9.59,26.1-7.14,35.33-7.53,82.43-3.49,164.92-2.07,247.39-1.87,83.47.2,166.95.51,250.43.92,6.53.03,13.48.95,19.43,5.03,7.48,5.12,7.04,13.1,6.79,20.75-.32,9.78.27,20.71-10.29,24.8-11.5,4.46-24.26,4.77-36.42,4.18-13.92-.67-27.95-.06-41.89.08-29.97.3-59.94.6-89.91.9Zm175.2,501.23c-.34,13.01-1.2,26.14-.93,39.15.16,7.59,3.24,23.98-6.04,28.14-9.26,4.15-8.04-23.97-8.04-29.9,0-25.79,4.63-52.64-4.13-77.59-1.53-4.35-5.27-9.42-9.59-7.8-3.96,1.49-3.99,7-3.36,11.18,2.8,18.86,4.6,37.87,5.46,56.92.43,9.56.62,19.14.57,28.72-.04,7.01,4.47,20.63-2.52,25.5-11.25,7.84-19.48-7.3-19.22-16.23.22-7.56-.55-14.44-1.57-21.88-.95-6.97-1.43-13.93-.98-20.96.46-7.37,1.47-14.67,1.28-22.07-.23-8.99-14.23-9.03-14,0,.36,13.89-2.26,27.31-.53,41.24,1.02,8.2,3.43,16.13,3.78,24.45.39,9.37-3.89,18.84-13.72,8.53-3.11-3.26-3.6-8.18-3.7-12.46-1.98-88.7-4.74-177.35-7.63-266.02-1.82-55.85-3.68-221.14-3.48-277.01,0-.31,65.35-.52,72.11-1.29,5.57,47.53,9.76,204.78,12.49,252.56.23,4.02.45,8.05.66,12.07,2.5,47.89,3.86,95.83,4,143.77.08,27-.22,54-.93,80.99Z"/><path class="cls-1" d="m963.04,456.32c-1.78-8.82-15.28-5.09-13.5,3.72,5,24.76,3.9,50.15,2.5,75.21-1.44,25.75-2.95,51.51-4.42,77.26-.52,9,13.49,8.97,14,0,1.51-26.39,3.07-52.78,4.53-79.17,1.42-25.76,2.03-51.6-3.1-77.02Z"/><path class="cls-1" d="m933.02,531.35c-.15-9-14.15-9.03-14,0,.74,44.23,1.47,88.46,2.21,132.69.15,9,14.15,9.03,14,0-.74-44.23-1.47-88.46-2.21-132.69Z"/><path class="cls-1" d="m1393.5,640.62c-7.31-69.17-11.74-138.62-13.28-208.16-.2-9-14.2-9.03-14,0,1.54,69.54,5.97,138.99,13.28,208.16.4,3.79,2.93,6.96,7,7,3.48.04,7.4-3.24,7-7Z"/><path class="cls-1" d="m1422.19,680.93c-4.71-56.72-7.35-113.58-7.93-170.49-.09-9-14.09-9.03-14,0,.58,56.91,3.23,113.78,7.93,170.49.74,8.91,14.75,8.99,14,0Z"/><path class="cls-2" d="m1084.16,950.84c-1.43-9.67-4.07-20.05-11.8-26.03-9.07-7.02-21.78-5.61-33.25-5.33-11,.27-21.89-.81-32.74-2.54.24-.48.46-.96.67-1.45,3.6-8.53,3.26-17.96,3.5-27.07.21-7.87.29-15.75.05-23.63-1.03-34.49-8.86-67.42-31.02-94.57-18.89-23.14-46.79-38.69-75.06-47.23-33.97-10.26-70.24-10.7-105.4-9.21-18.13.77-36.27,1.84-54.37,3.24-19.08,1.47-36.75,5.02-53.08,15.49-14.39,9.22-28.61,19.86-41.29,31.29-12.35,11.13-22.45,24.47-29.57,39.5-7.69,16.24-14.26,33.35-20.1,50.34-5.88,17.09-10.2,34.86-11.02,52.98-.34,7.61.24,15.17,1.35,22.68-2.61.76-5.21,1.53-7.82,2.3-8.54,2.52-17.54,5.31-23.51,11.91-8.06,8.91-8.43,22.15-8.25,34.17.47,31.45,1.69,62.88,3.65,94.27.56,8.96.25,20.43,1.21,31.78,1.4,16.54,5.49,32.84,18.92,40.75,9.1,5.36,20.43,4.14,30.98,4.65,2.26.11,4.6.33,6.57,1.46,6.34,3.64,4.68,12.95,5.5,20.21,1.11,9.8,8.99,18.46,18.64,20.49s20.35-2.72,25.32-11.25c5.45-9.36,5.22-23.14,14.91-27.98,2.86-1.43,6.12-1.74,9.3-2.01,89.06-7.51,179.06-.2,267.78-10.95,4.85-.59,10.22-1.11,14.19,1.73,5.95,4.24,5.31,13.02,6.96,20.14,2.63,11.34,13.52,20.43,25.16,20.27,11.64-.16,22.54-10.11,23.07-21.74.39-8.42-3.77-18,1.44-24.64,1.68-2.15,4.12-3.55,6.49-4.91,11.61-6.63,26.95-11.49,34.64-22.9,6.71-9.95,9.08-22.43,10.95-34.06,6.51-40.44,13.02-81.64,7.01-122.15Z"/><path class="cls-1" d="m1087.93,940.42c-1.73-11.06-3.59-24.6-15.24-29.58-8.94-3.82-19.23-3.31-28.73-2.91-9.71.41-20.71-.99-30.22.51,0,0,1.13-60.51.94-65.59-1.21-31.68-10.77-65.19-32.16-89.29-16.71-18.83-41-28.15-64.94-33.78-26.33-6.2-53.93-10.05-80.92-11.44-37.12-1.9-75.51.59-111.8,10.4-36.87,9.97-71.34,26.74-95.33,57.29-25.41,32.35-38.91,72.02-43.43,112.61-1.27,11.39-1.85,22.85-1.84,34.3,0,.29.02.57.05.84-.23,1.35-.35,2.73-.3,4.1-20.58,2.71-43.46,9.67-41.66,35.31.85,12.15.36,24.87.45,37.08.23,28.54-.47,57.32,2.26,85.77,1.33,13.88,3.5,27.74,7.33,41.17,3.35,11.72,7.9,23.96,20.64,27.97,13.05,4.11,26.78,2.73,40.23,2.68-.67.03-1.34,13.77-1.42,14.8-.49,6.37-2.43,14.21,2.15,19.54,2.39,2.78,5.77,4.58,9.28,5.67,9.7,2.99,21.44,3.73,31.15.51,8.22-2.72,12.83-9.42,15.33-17.39,1.25-3.98,2.04-8.08,2.93-12.14.9-4.11,1.18-9.14,5.29-11.41,3.76-2.07,9.85-.41,13.97-.33,5.63.11,11.26.16,16.89.15,15.32-.01,30.62-.95,45.93-.95,28.14-.75,56.28-1.85,84.39-3.31,29.84-1.56,59.67-3.34,89.49-5.19,12.24-.76,24.54-1.35,36.83-2.13,1.21,5.3,2.42,10.6,3.63,15.9,1.39,6.08,2.09,13.24,5.75,18.48,6.34,9.07,20.74,9.58,30.78,8.67,10.48-.95,20.62-5.45,23.76-16.35,2.7-9.39.93-20.36.7-29.98-.03-1.3-.05-2.67.56-3.82,2.03-3.81,18.76-6.64,23.28-9.2,10.32-5.85,17.62-15.32,22.33-26.06,5.1-11.63,7.72-24.15,10.01-36.59,2.51-13.66,4.29-27.47,5.3-41.32,2.07-28.38.75-56.9-3.63-85.01Zm-402.17-193.95c19.91-10.61,43.8-15.05,65.97-18.73,42.62-7.08,86.44-8.09,129.21-1.65,31.22,4.7,63.46,15.43,86.93,37.37,27.84,26.02,30.33,59.09,31.78,95.02,0,16.67.65,33.26.1,49.96-19.36.04,9.86.27-9.47.87-11.44.35-24.14,2.77-28.57,14.88-2.16,5.89-1.66,12.32-1.5,18.48.08,3.12.14,6.24.18,9.36-63.87-4.32-176.65-3.22-240.32,3.45-17.05,1.79-34.05,3.99-50.99,6.53-.34-9.42-1.32-19.09-7.76-26.36-.39-.43-.78-.84-1.18-1.24-.54-1.01-1.39-1.93-2.61-2.66-.63-.38-1.27-.73-1.91-1.06-10.82-7.25-25.33-6.73-39.01-5.62-5.98.18-11.96.57-17.9,1.2-.15,0-.31,0-.46,0-.05-.15-.08-.29-.11-.44.12-.71.16-1.43.1-2.13.03-.24.05-.5.05-.76-.05-67.46,24.4-142.85,87.5-176.48Zm274.72,219.58c-.01,14.44-.37,28.88-1.1,43.3-.36,7.18-.75,14.37-1.34,21.54-.34,4.14-.57,10.26-5.35,11.55-5.88,1.58-13.07.59-19.15.71-7.99.15-64.56.31-72.55.46l-45.94.89c-33.93.66-67.85,1.31-101.78,1.97-15.3.3-32.44,5.21-36.63-14.08-.97-4.45-9.39-56.02-7.01-56.39,80.09-12.19,210.04-15.42,290.86-9.95Zm-301.63,195.21c-.69,2.91-.58,6.52-.71,10.09-.19,5.19-.89,10.3-5.3,13.04-2.57,1.6-5.91,1.06-8.77,1.03-4.62-.05-9.41.27-13.99-.33-1.32-.17-3.55-.31-4.42-1.52-1.58-2.21,1.56-26.05,1.66-26.05,6.72.07,13.43.09,20.15.11,3.05,0,7.1-.7,10.05.03,2.5.62,1.89,1.27,1.33,3.61Zm354.67,10.96c-5.94,4.68-25.92,5.69-28.4-3.41-2.17-7.93-3.84-16.04-5.57-24.1,12.01-.95,23.99-2.2,35.86-4.1.28-.05.57-.09.85-.14.09,7.27.18,14.55.18,21.82,0,3.54.12,7.52-2.92,9.92Zm62.41-129.82c-1.5,13.9-3.1,28.95-7.24,42.4-3.55,11.56-9.83,22.64-19.54,29.86-14.49,10.78-32.87,12.17-50.18,14.09-32.62,3.63-65.42,4.71-98.16,6.77-56.33,3.39-112.69,6.37-169.11,7.81-29.78.73-59.57.7-89.36.48-14.46-.1-28.96-.58-43.41-.33-8.87.15-22.62,2.08-28.15-6.93-2.75-4.47-4.01-9.85-5.38-14.86-1.8-6.57-3.21-13.25-4.32-19.97-2.18-13.2-3.05-26.59-3.52-39.95-.95-27.36-.7-54.79-.92-82.17-.05-5.91-1.41-13.55-.63-20.38.2-.38.37-.79.51-1.24,2.54-8.09,9.35-10.85,16.9-12.95,8.78-2.44,17.78-4.04,26.85-4.93,7.47-.73,14.98-1.07,22.49-1.11,3.74.36,7.3.69,10.59.87,8.55.47,18,1.64,20.53,11.4,2.78,10.71,1.5,22.97,2.34,33.96,1.15,15.04,2.99,30.06,5.66,44.9,1.96,11.12,4.82,22.33,16.01,27.44,10.73,4.9,23.84,3.11,35.26,2.89l42.95-.83,84.9-1.64c13.98-.27,76.55-.54,90.53-.81,11.33-.22,27.1,2.34,34.98-7.83,7.03-9.08,5.94-23.31,6.55-34.13.78-13.71,1.24-27.44,1.38-41.17.13-13.34-1.01-26.87-.39-40.18.59-12.73,17.33-11.35,26.11-11.13,13.03.33,26.06.13,39.09-.03,7.9-.09,24.39-3.37,30.67,3.06,5.28,5.41,4.85,19.44,5.48,26.49,2.76,30.46,3.83,59.62.53,90.14Z"/><path class="cls-2" d="m414.46,882.4c-12.07-10.51-28.02-15.89-43.65-9.94-15.24,5.81-24.85,17.55-30.6,32.49-3.39,8.81,3.74,20.13,12.57,22.14,2.51.57,4.9.67,7.13.37,1.03.21,2.1.36,3.2.42,7.02.35,14.04.7,21.06.79,7.48.1,15.84.57,23.1-1.44,10.3-2.84,18.47-11.87,18.74-22.79.22-9-5.07-16.39-11.56-22.04Z"/><path class="cls-2" d="m560.41,715.02c-3.89-5.92-8.49-11.42-14.83-14.8-7.19-3.83-15.84-4.48-23.84-4.47-7.33,0-14.68,1-21.89,2.23-6.95,1.18-14.69,2.39-20.9,5.93-.53.3-1.04.62-1.53.94-3.27-.86-6.73-.92-10.02-.16-5.51-2.75-12.6-2.85-17.58.37-8.73,5.63-10.85,15.53-6.46,24.63,1.37,2.83,2.71,5.67,4,8.54.78,1.72,1.54,3.44,2.29,5.17-.32-.74-1.02-2.5.38.91,2.63,6.39,5.07,12.87,7.31,19.41,4.3,12.57,5.9,30.39,18.34,37.81,8.25,4.92,18.15,4.2,26.28-.6,6.22-3.67,11.35-9.39,16.55-14.33,9.82-9.3,19.9-18.4,29.44-28,11.55-11.63,23.24-27.19,12.47-43.57Z"/><path class="cls-1" d="m332.54,905.6c4.06-17.48,13.94-32.31,31.46-38.07,1.15-.38,2.31-.7,3.49-1,10.74-33.27-16.79-61.27-16.79-97.55s17.97-61.97,49.03-70.33c13.24-3.57,29.73-3.89,41.87,2.45.67.35,6.92-4.12,7.95-4.55,4.33-1.8,9.03-2.53,13.69-1.97,5.03.61,10.06,2.26,14.95.04,7.19-3.27,15.28-4.98,23.1-6.09,20.35-2.87,41.9-.17,60.65,8.36,8.28,3.77,9.43,10.2,9.49,18.64.12,15.86-4.89,30.39-13.12,43.84-12.74,20.81-29.64,40.04-51.73,51.32-7.62,3.89-17.74,9.23-26.5,6.99-10.89-2.79-16.72-16.17-21.34-25.26-6.54-12.86-12.22-27.2-13.59-41.64-.09-1,.37-5.99-.54-6.53-10.84-6.48-15.87-19.8-11.41-31.57-19.92-8.74-44.21-1.43-57.41,15.22-18.79,23.7-14.23,49.66-3.34,78.98,5.77,15.53,14.63,42.1,10.16,58.07,10.56.38,20.99,3.83,29.35,10.35,13.84,10.78,20.5,29.34,16.22,46.37,5.5,2.75,4.39,13.05-3.32,13.33-20.78.76-41.59.56-62.34-.71-8.37-.51-18.04-.35-24.75-6.17-6.57-5.7-7.07-14.54-5.22-22.5Zm200.19-136.9c8.54-10.45,15.59-22.11,20.81-34.56,1.42-3.4,2.82-6.86,3.52-10.49.35-1.8.55-3.65.39-5.49-.22-2.54-.69-2.56-3.08-1.96-7.24,1.81-13.13,6.99-18.16,12.27-12.17,12.78-22.95,27.25-32.21,42.24-4.6,7.44-9.27,15.06-11.28,23.57-.47,1.98-.53,4.55,1.26,5.51,1.5.81,3.33-.09,4.77-1,12.87-8.09,24.36-18.33,33.98-30.1Zm-55.27,28.6c2.12-.39,4.36-9.71,4.9-11.3,1.76-5.22,3.38-10.45,5.5-15.53,3.73-8.93,8.19-17.65,13.78-25.57,10.84-15.33,25.75-27.22,40.39-38.97.51-.41,1.07-1.03.78-1.61-.12-.24-.35-.39-.58-.52-7.57-4.52-16.71-4.85-25.28-4.45-17.31.79-38.68,4.97-50.05,19.1-8.13,10.11-9.44,23.9-7.85,36.51,3.26,25.76,17.48,42.5,18.41,42.35Zm-30.16-68.88c.84-3.44,2.99-7.3,4.5-10.18,1.81-3.45,5.47-9.41,7.86-12.49-6.54-1.46-9.28,1.36-11.46,2.83-1.95,1.32-3.68,5.01-4.25,7.3-1.37,5.48-.39,10.36,3.35,12.53Zm-83.8,191.91c16.89,1.01,33.8,1.3,50.71.95-.06-.78,0-1.63.25-2.53,3.86-14.14-3.48-29.11-16.29-35.8-13.4-7-34.62-5.48-44.07,7.47-4.25,5.83-7.87,14.37-8.54,21.63-.86,9.36,11.62,7.9,17.94,8.28Z"/></svg>